/* XPM */
static char * exit_xpm[] = {
"32 32 321 2",
"  	c #D7AF8C",
". 	c #D9B18E",
"+ 	c #DCB491",
"@ 	c #DFB794",
"# 	c #D8B190",
"$ 	c #D6AF8E",
"% 	c #DBB493",
"& 	c #DCB594",
"* 	c #DAB392",
"= 	c #D7B08F",
"- 	c #D9B291",
"; 	c #DEB894",
"> 	c #DFB995",
", 	c #DDB592",
"' 	c #D5AD89",
") 	c #D2AA86",
"! 	c #D1A781",
"~ 	c #D3A983",
"{ 	c #D7AD87",
"] 	c #D9AF89",
"^ 	c #DAAE89",
"/ 	c #DBB390",
"( 	c #D9B593",
"_ 	c #DCB596",
": 	c #DEB796",
"< 	c #DFB897",
"[ 	c #DBB591",
"} 	c #D3AC8B",
"| 	c #CEA683",
"1 	c #D4AC89",
"2 	c #D1A985",
"3 	c #D0A884",
"4 	c #D2A882",
"5 	c #D5AA87",
"6 	c #DBB08D",
"7 	c #DAB28F",
"8 	c #DEB693",
"9 	c #DDB695",
"0 	c #D9B595",
"a 	c #D8B494",
"b 	c #D7B393",
"c 	c #D6B393",
"d 	c #D9B497",
"e 	c #DBB797",
"f 	c #DCB898",
"g 	c #D4B090",
"h 	c #D2AB8A",
"i 	c #D0A988",
"j 	c #D0AA86",
"k 	c #D1AB87",
"l 	c #D3AB88",
"m 	c #D6AE8A",
"n 	c #D8B492",
"o 	c #DAB696",
"p 	c #DAB799",
"q 	c #DBB89A",
"r 	c #D7B599",
"s 	c #D3B195",
"t 	c #D2AF91",
"u 	c #D1AE90",
"v 	c #D3B092",
"w 	c #D5B191",
"x 	c #CBA787",
"y 	c #CFAB89",
"z 	c #D3AF8D",
"A 	c #DFBB9B",
"B 	c #D6B194",
"C 	c #D6B395",
"D 	c #D7B496",
"E 	c #D9B698",
"F 	c #DCBA9E",
"G 	c #E0C1A5",
"H 	c #DDBEA2",
"I 	c #D7B89C",
"J 	c #D2B094",
"K 	c #CCAA8E",
"L 	c #C9A78B",
"M 	c #CAA789",
"N 	c #CBA88A",
"O 	c #D8B597",
"P 	c #DDB999",
"Q 	c #DEBB9D",
"R 	c #D6B292",
"S 	c #D8B798",
"T 	c #DAB79B",
"U 	c #DBB99D",
"V 	c #DDBB9F",
"W 	c #DCBDA1",
"X 	c #DDBFA5",
"Y 	c #DFC1A7",
"Z 	c #E2C4AA",
"` 	c #E0C2A8",
" .	c #DCBEA4",
"..	c #D2B397",
"+.	c #D0B195",
"@.	c #E0BEA2",
"#.	c #E1BEA2",
"$.	c #E0BDA1",
"%.	c #DFBCA0",
"&.	c #D7B295",
"*.	c #D8B69A",
"=.	c #DAB89C",
"-.	c #000000",
";.	c #E0C4AE",
">.	c #E6CAB4",
",.	c #EACEB6",
"'.	c #E9CDB5",
").	c #DFC0A4",
"!.	c #E3C1A6",
"~.	c #E2C0A5",
"{.	c #DEBFA3",
"].	c #D4AD8C",
"^.	c #D2AE8E",
"/.	c #C5C5C5",
"(.	c #E3C3AA",
"_.	c #FFA50D",
":.	c #F5CF60",
"<.	c #E6BF9E",
"[.	c #E4BD9C",
"}.	c #E1BA99",
"|.	c #DCB896",
"1.	c #F57F1A",
"2.	c #F5B52E",
"3.	c #E5C7AF",
"4.	c #E0B998",
"5.	c #E4C6AE",
"6.	c #2091E9",
"7.	c #E1C3AB",
"8.	c #E2BB9A",
"9.	c #E3BC9B",
"0.	c #E2BE9E",
"a.	c #E3BF9F",
"b.	c #E4C4AD",
"c.	c #DEBA9A",
"d.	c #E1BD9D",
"e.	c #0081E2",
"f.	c #E8C8B1",
"g.	c #E1C1AA",
"h.	c #EC3B3B",
"i.	c #D6B499",
"j.	c #FFFFFF",
"k.	c #CCA98B",
"l.	c #DCB99B",
"m.	c #616161",
"n.	c #FFF4BA",
"o.	c #D5B292",
"p.	c #E2C0A4",
"q.	c #DEBD9E",
"r.	c #E1C3A7",
"s.	c #DEC2AA",
"t.	c #E0C6AD",
"u.	c #DCC3AD",
"v.	c #EA6D00",
"w.	c #E49E00",
"x.	c #E3CAB4",
"y.	c #DCC6B1",
"z.	c #DBC5B0",
"A.	c #515151",
"B.	c #E4CEB7",
"C.	c #E7D2BD",
"D.	c #DEC9B6",
"E.	c #DCC7B4",
"F.	c #DBC4B2",
"G.	c #DEC8B3",
"H.	c #E0C7B1",
"I.	c #DCBEA6",
"J.	c #D9BA9E",
"K.	c #D8B99D",
"L.	c #D6BCA5",
"M.	c #E2CCB7",
"N.	c #E4CFBA",
"O.	c #E9D4C1",
"P.	c #EBD9C5",
"Q.	c #DDCAB9",
"R.	c #DECCB8",
"S.	c #E1CCB9",
"T.	c #E2CDBA",
"U.	c #E1CBB6",
"V.	c #DFC9B2",
"W.	c #E0C8B0",
"X.	c #DEC4AD",
"Y.	c #DFC5AC",
"Z.	c #DFC3AB",
"`.	c #DBC0A5",
" +	c #D8BDA2",
".+	c #DABCA2",
"++	c #E1C3A9",
"@+	c #DBBDA3",
"#+	c #D8BAA0",
"$+	c #D6BAA2",
"%+	c #D7BBA3",
"&+	c #DABEA8",
"*+	c #DDC1AB",
"=+	c #DEC3AE",
"-+	c #DFC6B0",
";+	c #E5CFBA",
">+	c #E5D0BD",
",+	c #E4CFBC",
"'+	c #E7D2C1",
")+	c #E8D5C4",
"!+	c #DBC8B7",
"~+	c #DCC9B8",
"{+	c #E0CBB8",
"]+	c #E3CDB8",
"^+	c #E2CCB5",
"/+	c #E2C9B3",
"(+	c #E5CBB4",
"_+	c #E6CCB5",
":+	c #E4CAB1",
"<+	c #E1C5AD",
"[+	c #D9BDA5",
"}+	c #DABEA6",
"|+	c #DBBFA9",
"1+	c #DCC2AB",
"2+	c #DFC3AD",
"3+	c #E0C5B0",
"4+	c #E2C7B2",
"5+	c #E2C9B5",
"6+	c #E3CEBD",
"7+	c #E5D0BF",
"8+	c #EBD8C7",
"9+	c #E6D0BB",
"0+	c #E7D1BC",
"a+	c #E4CEB9",
"b+	c #E9D0BA",
"c+	c #EBD2BC",
"d+	c #EBD3BB",
"e+	c #E8CEB7",
"f+	c #E2C8B1",
"g+	c #DDC3AC",
"h+	c #D8BDA8",
"i+	c #DBC0AB",
"j+	c #DFC4AF",
"k+	c #E6CBB6",
"l+	c #E6CDB9",
"m+	c #E4CDBB",
"n+	c #E6CFBD",
"o+	c #E8D1BF",
"p+	c #E9D4C3",
"q+	c #E8D3C2",
"r+	c #DFCAB7",
"s+	c #E8D2BD",
"t+	c #E9D3BE",
"u+	c #DAC3B1",
"v+	c #DCC5B3",
"w+	c #E0C9B7",
"x+	c #E3CCBA",
"y+	c #E5CEBC",
"z+	c #E9D2C0",
"A+	c #EDD8C7",
"B+	c #EFDAC9",
"C+	c #ECD7C6",
"D+	c #E6D1C0",
"E+	c #E0CBBA",
"F+	c #DCC7B6",
"G+	c #E3CEBB",
"H+	c #E4CFBE",
"I+	c #EAD5C4",
"J+	c #EBD4C4",
"K+	c #E9D2C2",
"L+	c #E1CAB8",
"M+	c #D8C1AF",
"N+	c #E6D1BE",
"O+	c #E2D0BC",
"P+	c #E1CEBD",
"Q+	c #E2CFBE",
"R+	c #E5D2C1",
"S+	c #E6D5C3",
"T+	c #E8D5C6",
"U+	c #E6D5C5",
"V+	c #EBD8C9",
"W+	c #E9D7C9",
"X+	c #E9D6C8",
"Y+	c #E7D4C6",
"Z+	c #E7D4C5",
"`+	c #E9D3C5",
" @	c #F0DBCA",
".@	c #E3CCBC",
"+@	c #DDC6B4",
"@@	c #DFC6B2",
"#@	c #E8CFB9",
"$@	c #E7CEB8",
"%@	c #E6CDB7",
"&@	c #E4CBB5",
"*@	c #E4D1C0",
"=@	c #E1CEBF",
"-@	c #E2D1C1",
";@	c #E7D7C7",
">@	c #E8D6C8",
",@	c #E6D6C7",
"'@	c #E9D7CB",
")@	c #E9D9CC",
"!@	c #EAD8CC",
"~@	c #EAD8CA",
"{@	c #E7D5C7",
"]@	c #E6D3C5",
"^@	c #E5D2C3",
"/@	c #D9C2B0",
"(@	c #DCC2B1",
"_@	c #E0C7B3",
":@	c #E8CCB4",
"<@	c #E6CAB2",
"[@	c #E5C9B3",
"}@	c #E4CAB3",
"|@	c #E5CAB5",
"1@	c #E5CCB6",
"2@	c #E2CDB8",
"3@	c #E3D1BD",
"4@	c #E7D4C3",
"5@	c #E7D6C4",
"6@	c #E5D4C2",
"7@	c #E3D2C2",
"8@	c #E4D1C3",
"9@	c #EAD7C9",
"0@	c #ECD9CA",
"a@	c #EDD7C9",
"b@	c #EAD4C6",
"c@	c #DFC8B6",
"d@	c #DDC7B2",
"e@	c #E1C8B2",
"f@	c #E1C7B0",
"  . + @ @ + # $ % % & & % * = $ % - # * ; > @ , ' ) ! ~ { ] ^ ' ",
"/ / + + + + * * & & & & % * - # % ( _ : < [ } | 1 2 3 4 5 ] 6 7 ",
"8 , / 7 - * & 9 & & 0 a a a 0 0 b c d e f ( g h i j k ) l m / : ",
", , + / * % & & % n b b b 0 o p q r s t u t v w x y z = = # 9 A ",
"/ / % & & % a a a b B C D E q F G H I J K L L M N u O f f e P Q ",
". 7 % % % ( b R b D D S T U V W X Y Z `  .I ..+.+.r F @.#.$.%.V ",
"* - # # R R &.D O *.=.-.-.-.-.-.-.;.>.,.'.-.-.-.-.-.-.).!.!.~.{.",
"& - $ ].^.-.-.-.-.-.-././././././.-.-.-.-././././././.-.-.-.(.` ",
"- - - - -._._._._._.:.:.:.:.:.:.:.:.:.:.:.:.:.:.:.:.:.:.:.:.-.` ",
"<.[.}.|.-.1.1.1.1.1.2.2.2.2.2.2.2.2.2.2.2.2.2.2.2.2.2.2.2.2.-.3.",
"4.: o o -.-.-.-.-.-.2.-.-.-.-.2.-.-.-.-.-.-.2.-.-.-.-.-.-.2.-.5.",
"% % 0 f -.6.6.6.6.-.2.-.6.6.-.2.-.6.6.6.6.-.2.-.6.6.6.6.-.2.-.7.",
"8.9.0.a.-.6.6.6.6.-.2.-.6.6.-.2.-.-.-.-.-.-.2.-.-.-.-.-.-.2.-.b.",
"% 9 c.d.-.e.e.e.e.-.2.-.e.e.-.2.-.e.e.e.e.-.2.-.e.e.e.e.-.2.-.f.",
"h ].-.-.-.-.-.-.-.-.2.-.-.-.-.2.-.-.-.-.-.-.2.-.-.-.-.-.-.2.-.g.",
"& -.1.1.1.1.1.1.2.2.2.2.2.2.2.2.h.h.2.2.2.2.2.2.2.2.2.2.2.2.-.i.",
"b -.-.-././.-.-.-.-.2.-.-.-.-.h.j.j.h.-.-.-.-.-.-.-.-.-.-.2.-.k.",
"l.-.2.-.m.m.-.2.n.-.2.2.2.2.2.h.h.h.h.2.2.2.2.2.2.2.2.2.2.h.-.o.",
"p.-.-.-.m.m.-.-.-.-.2.-.-.-.-.2.h.h.2.2.2.2.2.2.-.-.-.-.2.h.-.q.",
"r.-.1.1.1.1.1.1.2.2.-.m.m.m.m.-.2.-.-.-.-.-.2.-.m.m.m.m.-.2.-.r.",
"s.-.1.1.1.1.1.1.2.2.-.m././.m.-.2.2.2.2.2.2.2.-.m././.m.-.2.-.t.",
"u.-.v.v.v.v.v.v.w.w.-.m././.m.-.w.w.w.w.w.w.w.-.m././.m.-.w.-.x.",
"y.z.-.-.-.-.-.-.-.-.-.A.A.A.A.-.-.-.-.-.-.-.-.-.A.A.A.A.-.-.B.C.",
"D.E.F.y.G.H.-.-.-.-.I.-.-.-.-.H J.J.K.-.-.-.-.L.-.-.-.-.M.N.O.P.",
"Q.R.S.T.S.U.V.W.X.Y.Z.`. +.+X ++@+.+#+$+%+&+*+=+-+U.;+>+,+>+'+)+",
"!+~+{+T.T.T.]+^+/+(+_+:+<+s.s.Z.[+}+|+1+2+3+4+5+]+;+>+,+6+7+)+8+",
"E.D.{+T.,+>+9+0+a+b+c+d+e+f+X.g+h+i+j+/+k+l+l+m+n+o+p+p+q+'+'+q+",
"D.r+S.T.,+>+0+s+a+9+s+t+9+M.G.z.u+v+w+x+y+n+n+n+n+z+A+B+C+D+E+F+",
"a+a+a+a+a+;+,+>+,+,+,+>+>+,+G+T.H+H+H+7+7+D+'+'+I+I+J+K+n+L+v+M+",
"9+9+a+]+]+]+T.G+N+O+P+Q+R+S+T+U+V+W+X+T+Y+Z+`+p+ @I+.@+@F.F.+@@@",
"#@$@%@&@M.M.T.T.*@Q+=@-@U+;@>@,@'@)@!@~@'@{@]@^@I+H++@/@(@@@_@4+",
"'.:@<@[@}@|@1@B.;+2@T.3@4@5@6@7@8@Y+9@0@a@b@7+.@c@d@@@e@|@(+f@X."};
