/* XPM */
static char * Floor3_xpm[] = {
"32 32 496 2",
"  	c #D7AF8C",
". 	c #D9B18E",
"+ 	c #DCB491",
"@ 	c #DFB794",
"# 	c #D8B190",
"$ 	c #D6AF8E",
"% 	c #DBB493",
"& 	c #DCB594",
"* 	c #DAB392",
"= 	c #D7B08F",
"- 	c #D9B291",
"; 	c #DEB894",
"> 	c #DFB995",
", 	c #DDB592",
"' 	c #D5AD89",
") 	c #D2AA86",
"! 	c #D1A781",
"~ 	c #D3A983",
"{ 	c #D7AD87",
"] 	c #D9AF89",
"^ 	c #DAAE89",
"/ 	c #DBB390",
"( 	c #D9B593",
"_ 	c #DCB596",
": 	c #DEB796",
"< 	c #DFB897",
"[ 	c #DBB591",
"} 	c #D3AC8B",
"| 	c #CEA683",
"1 	c #D4AC89",
"2 	c #D1A985",
"3 	c #D0A884",
"4 	c #D2A882",
"5 	c #D5AA87",
"6 	c #DBB08D",
"7 	c #DAB28F",
"8 	c #DEB693",
"9 	c #DDB695",
"0 	c #D9B595",
"a 	c #D8B494",
"b 	c #D7B393",
"c 	c #D6B393",
"d 	c #D9B497",
"e 	c #DBB797",
"f 	c #DCB898",
"g 	c #D4B090",
"h 	c #D2AB8A",
"i 	c #D0A988",
"j 	c #D0AA86",
"k 	c #D1AB87",
"l 	c #D3AB88",
"m 	c #D6AE8A",
"n 	c #D8B492",
"o 	c #DAB696",
"p 	c #DAB799",
"q 	c #DBB89A",
"r 	c #D7B599",
"s 	c #D3B195",
"t 	c #D2AF91",
"u 	c #D1AE90",
"v 	c #D3B092",
"w 	c #D5B191",
"x 	c #CBA787",
"y 	c #CFAB89",
"z 	c #D3AF8D",
"A 	c #DFBB9B",
"B 	c #D6B194",
"C 	c #D6B395",
"D 	c #D7B496",
"E 	c #D9B698",
"F 	c #DCBA9E",
"G 	c #E0C1A5",
"H 	c #DDBEA2",
"I 	c #D7B89C",
"J 	c #D2B094",
"K 	c #CCAA8E",
"L 	c #C9A78B",
"M 	c #CAA789",
"N 	c #CBA88A",
"O 	c #D8B597",
"P 	c #DDB999",
"Q 	c #DEBB9D",
"R 	c #D6B292",
"S 	c #D8B798",
"T 	c #DAB79B",
"U 	c #DBB99D",
"V 	c #DDBB9F",
"W 	c #DCBDA1",
"X 	c #DDBFA5",
"Y 	c #DFC1A7",
"Z 	c #E2C4AA",
"` 	c #E0C2A8",
" .	c #DCBEA4",
"..	c #D2B397",
"+.	c #D0B195",
"@.	c #E0BEA2",
"#.	c #E1BEA2",
"$.	c #E0BDA1",
"%.	c #DFBCA0",
"&.	c #D7B295",
"*.	c #D8B69A",
"=.	c #DAB89C",
"-.	c #DBBC9F",
";.	c #DFBDA2",
">.	c #DFC0A4",
",.	c #DABEA8",
"'.	c #E0C4AE",
").	c #E6CAB4",
"!.	c #EACEB6",
"~.	c #E9CDB5",
"{.	c #E8CAB2",
"].	c #E5C7AF",
"^.	c #E5C7AD",
"/.	c #DDBDA4",
"(.	c #E3C1A6",
"_.	c #E2C0A5",
":.	c #DEBFA3",
"<.	c #D4AD8C",
"[.	c #D2AE8E",
"}.	c #D8B99C",
"|.	c #DEC0A4",
"1.	c #E0C2A6",
"2.	c #E0C4AC",
"3.	c #E1C6B1",
"4.	c #E3C8B3",
"5.	c #E6CBB6",
"6.	c #E5CBB4",
"7.	c #E4C8B3",
"8.	c #E3C7B1",
"9.	c #E5C9B3",
"0.	c #E8CCB4",
"a.	c #E6C7B2",
"b.	c #E1C3AB",
"c.	c #DDBFA7",
"d.	c #DEBEA5",
"e.	c #E1C1AA",
"f.	c #E3C3AA",
"g.	c #D6B498",
"h.	c #DEBCA1",
"i.	c #DDC2A7",
"j.	c #E0C5AA",
"k.	c #E2C6AE",
"l.	c #E4C8B0",
"m.	c #E4CAB3",
"n.	c #E2C7B2",
"o.	c #E2C9B5",
"p.	c #E1C8B4",
"q.	c #E0C7B1",
"r.	c #E0C5B2",
"s.	c #E0C5B0",
"t.	c #E5C9B4",
"u.	c #E4C6AE",
"v.	c #E2C3AE",
"w.	c #E6BF9E",
"x.	c #E4BD9C",
"y.	c #E1BA99",
"z.	c #DCB896",
"A.	c #DABB9E",
"B.	c #DFC5AC",
"C.	c #E2C8AF",
"D.	c #E2CAB2",
"E.	c #E4CBB5",
"F.	c #E0C7B3",
"G.	c #E1C6B3",
"H.	c #E6CAB5",
"I.	c #E1C5AF",
"J.	c #E3C4AF",
"K.	c #E0B998",
"L.	c #DDB89B",
"M.	c #E0BD9F",
"N.	c #E5C3A7",
"O.	c #E6C7AB",
"P.	c #DFC4A9",
"Q.	c #E4CCB4",
"R.	c #E1CBB4",
"S.	c #E2C9B3",
"T.	c #E2C8B7",
"U.	c #E1C7B6",
"V.	c #E2C7B4",
"W.	c #E5CAB7",
"X.	c #E7CCB9",
"Y.	c #E9CDB8",
"Z.	c #E7CBB6",
"`.	c #E1C5B0",
" +	c #DFBC9E",
".+	c #E3C2A3",
"++	c #E8C6AB",
"@+	c #E8CAAE",
"#+	c #E3C8AD",
"$+	c #E4CAB1",
"%+	c #E6CCB5",
"&+	c #E6CDB7",
"*+	c #E4CEB7",
"=+	c #E2CCB7",
"-+	c #DEC8B3",
";+	c #DCC5B3",
">+	c #EACEB9",
",+	c #E8CCB7",
"'+	c #E4C5B0",
")+	c #E1C2AD",
"!+	c #E2BB9A",
"~+	c #E3BC9B",
"{+	c #E2BE9E",
"]+	c #E3BF9F",
"^+	c #E3C0A2",
"/+	c #E2C1A2",
"(+	c #E2C7AC",
"_+	c #E3C9B0",
":+	c #E5CDB5",
"<+	c #E5CFB8",
"[+	c #E5CFBA",
"}+	c #E2CDBA",
"|+	c #E0CBB8",
"1+	c #DEC9B6",
"2+	c #E4C9B8",
"3+	c #E4C9B6",
"4+	c #EACBB6",
"5+	c #E9CAB5",
"6+	c #E7C8B3",
"7+	c #E6C6B1",
"8+	c #E4C4AD",
"9+	c #DEBA9A",
"0+	c #E1BD9D",
"a+	c #E1BEA0",
"b+	c #DBBDA3",
"c+	c #DDC1A9",
"d+	c #DDC5AD",
"e+	c #E1C8B2",
"f+	c #E4CFBC",
"g+	c #E2D0BC",
"h+	c #E2CFBE",
"i+	c #E4CFBE",
"j+	c #E3C9B8",
"k+	c #E5CAB9",
"l+	c #DFC4B1",
"m+	c #E2C6B1",
"n+	c #DFC3AE",
"o+	c #E8C9B4",
"p+	c #E9C9B4",
"q+	c #E8C8B1",
"r+	c #DDBA9C",
"s+	c #DFBDA1",
"t+	c #DEC2AA",
"u+	c #DFC6B0",
"v+	c #E0CAB5",
"w+	c #E1CCB9",
"x+	c #E0CDBC",
"y+	c #E1CEBF",
"z+	c #E1CEBD",
"A+	c #E4CAB9",
"B+	c #E5C8B6",
"C+	c #E2C5B3",
"D+	c #DEC1AF",
"E+	c #DDC0AE",
"F+	c #E1C2AE",
"G+	c #E2C3AF",
"H+	c #DDBEA9",
"I+	c #DCBDA8",
"J+	c #DDBDA8",
"K+	c #DDBDA6",
"L+	c #DEBEA7",
"M+	c #E0C0A9",
"N+	c #DAB694",
"O+	c #DBBA9B",
"P+	c #DEBCA0",
"Q+	c #E3C7AF",
"R+	c #E2C8B1",
"S+	c #DFC9B4",
"T+	c #DDC8B5",
"U+	c #DBC8B7",
"V+	c #E5CCB8",
"W+	c #E5CAB5",
"X+	c #DDC1AC",
"Y+	c #DCC0AA",
"Z+	c #DFC0AB",
"`+	c #E0C2AA",
" @	c #DCBEA6",
".@	c #D9BBA3",
"+@	c #D4B49D",
"@@	c #D0B097",
"#@	c #CEAE95",
"$@	c #D1AF94",
"%@	c #D4B299",
"&@	c #D6B499",
"*@	c #DFBA9D",
"=@	c #E0BFA0",
"-@	c #E1BFA3",
";@	c #E2C3A7",
">@	c #E4C6AC",
",@	c #DBC1AA",
"'@	c #DBC2AC",
")@	c #DDC4AE",
"!@	c #E3CAB4",
"~@	c #E3C9B2",
"{@	c #E1C7AE",
"]@	c #DEC3A8",
"^@	c #DFC1A5",
"/@	c #D8B595",
"(@	c #CCA98B",
"_@	c #DCB99B",
":@	c #E2BFA1",
"<@	c #E1C2A6",
"[@	c #E4C5A9",
"}@	c #E1C5AD",
"|@	c #DFC5AE",
"1@	c #E0C6AF",
"2@	c #E0C6AD",
"3@	c #E0C6AB",
"4@	c #DFC5AA",
"5@	c #DDC3A8",
"6@	c #DEC3A6",
"7@	c #DDC2A5",
"8@	c #DFC2A4",
"9@	c #E0C3A5",
"0@	c #DCBDA0",
"a@	c #DABB9C",
"b@	c #DCBB9A",
"c@	c #DDBC9B",
"d@	c #DDBB98",
"e@	c #D9B696",
"f@	c #D5B292",
"g@	c #E2C0A4",
"h@	c #E4C2A6",
"i@	c #E3C4A7",
"j@	c #DFC3AB",
"k@	c #DFC4A7",
"l@	c #DBBC9D",
"m@	c #DDBE9F",
"n@	c #E0BF9E",
"o@	c #DEBD9E",
"p@	c #E1C3A7",
"q@	c #E2C4A8",
"r@	c #E3C5A9",
"s@	c #E1C1A8",
"t@	c #E1C3A9",
"u@	c #E4C6AA",
"v@	c #E1C6A9",
"w@	c #DDBFA3",
"x@	c #D9BB9F",
"y@	c #D8BB9D",
"z@	c #D9BA9E",
"A@	c #D9BC9E",
"B@	c #DCBFA1",
"C@	c #DEC1A3",
"D@	c #DEC0A6",
"E@	c #DABCA2",
"F@	c #E7C8AC",
"G@	c #E4C7A9",
"H@	c #DBBDA1",
"I@	c #DABCA0",
"J@	c #D7BC9F",
"K@	c #D9BBA1",
"L@	c #D7BCA1",
"M@	c #D9BEA3",
"N@	c #DBC0A5",
"O@	c #DCC3AD",
"P@	c #DBC3AB",
"Q@	c #DDC3AC",
"R@	c #D7B99F",
"S@	c #D8BA9E",
"T@	c #DCBEA2",
"U@	c #E5C6AA",
"V@	c #E5C6A9",
"W@	c #E4C5A8",
"X@	c #D6BBA0",
"Y@	c #D8BCA4",
"Z@	c #DABEA6",
"`@	c #D9BFA6",
" #	c #DAC0A9",
".#	c #DFC7AF",
"+#	c #DCC6B1",
"@#	c #DBC5B0",
"##	c #DAC4AF",
"$#	c #DEC4AD",
"%#	c #DBC1A8",
"&#	c #D9BDA5",
"*#	c #DBBCA0",
"=#	c #DFC0A3",
"-#	c #DEBFA2",
";#	c #D8BAA0",
">#	c #D6BAA2",
",#	c #DEC6AE",
"'#	c #DFC9B2",
")#	c #E7D2BD",
"!#	c #DCC7B4",
"~#	c #DBC4B2",
"{#	c #D8BEA7",
"]#	c #D8B99D",
"^#	c #D5B9A1",
"/#	c #D6BCA5",
"(#	c #E1CBB6",
"_#	c #E4CFBA",
":#	c #E9D4C1",
"<#	c #EBD9C5",
"[#	c #DDCAB9",
"}#	c #DECCB8",
"|#	c #E0C8B0",
"1#	c #D8BDA2",
"2#	c #D7BBA3",
"3#	c #DDC1AB",
"4#	c #DEC3AE",
"5#	c #E5D0BD",
"6#	c #E7D2C1",
"7#	c #E8D5C4",
"8#	c #DCC9B8",
"9#	c #E3CDB8",
"0#	c #E2CCB5",
"a#	c #DBBFA9",
"b#	c #DCC2AB",
"c#	c #DFC3AD",
"d#	c #E3CEBD",
"e#	c #E5D0BF",
"f#	c #EBD8C7",
"g#	c #E6D0BB",
"h#	c #E7D1BC",
"i#	c #E4CEB9",
"j#	c #E9D0BA",
"k#	c #EBD2BC",
"l#	c #EBD3BB",
"m#	c #E8CEB7",
"n#	c #D8BDA8",
"o#	c #DBC0AB",
"p#	c #DFC4AF",
"q#	c #E6CDB9",
"r#	c #E4CDBB",
"s#	c #E6CFBD",
"t#	c #E8D1BF",
"u#	c #E9D4C3",
"v#	c #E8D3C2",
"w#	c #DFCAB7",
"x#	c #E8D2BD",
"y#	c #E9D3BE",
"z#	c #DAC3B1",
"A#	c #E0C9B7",
"B#	c #E3CCBA",
"C#	c #E5CEBC",
"D#	c #E9D2C0",
"E#	c #EDD8C7",
"F#	c #EFDAC9",
"G#	c #ECD7C6",
"H#	c #E6D1C0",
"I#	c #E0CBBA",
"J#	c #DCC7B6",
"K#	c #E3CEBB",
"L#	c #EAD5C4",
"M#	c #EBD4C4",
"N#	c #E9D2C2",
"O#	c #E1CAB8",
"P#	c #D8C1AF",
"Q#	c #E6D1BE",
"R#	c #E5D2C1",
"S#	c #E6D5C3",
"T#	c #E8D5C6",
"U#	c #E6D5C5",
"V#	c #EBD8C9",
"W#	c #E9D7C9",
"X#	c #E9D6C8",
"Y#	c #E7D4C6",
"Z#	c #E7D4C5",
"`#	c #E9D3C5",
" $	c #F0DBCA",
".$	c #E3CCBC",
"+$	c #DDC6B4",
"@$	c #DFC6B2",
"#$	c #E8CFB9",
"$$	c #E7CEB8",
"%$	c #E4D1C0",
"&$	c #E2D1C1",
"*$	c #E7D7C7",
"=$	c #E8D6C8",
"-$	c #E6D6C7",
";$	c #E9D7CB",
">$	c #E9D9CC",
",$	c #EAD8CC",
"'$	c #EAD8CA",
")$	c #E7D5C7",
"!$	c #E6D3C5",
"~$	c #E5D2C3",
"{$	c #D9C2B0",
"]$	c #DCC2B1",
"^$	c #E6CAB2",
"/$	c #E5CCB6",
"($	c #E2CDB8",
"_$	c #E3D1BD",
":$	c #E7D4C3",
"<$	c #E7D6C4",
"[$	c #E5D4C2",
"}$	c #E3D2C2",
"|$	c #E4D1C3",
"1$	c #EAD7C9",
"2$	c #ECD9CA",
"3$	c #EDD7C9",
"4$	c #EAD4C6",
"5$	c #DFC8B6",
"6$	c #DDC7B2",
"7$	c #E1C7B0",
"  . + @ @ + # $ % % & & % * = $ % - # * ; > @ , ' ) ! ~ { ] ^ ' ",
"/ / + + + + * * & & & & % * - # % ( _ : < [ } | 1 2 3 4 5 ] 6 7 ",
"8 , / 7 - * & 9 & & 0 a a a 0 0 b c d e f ( g h i j k ) l m / : ",
", , + / * % & & % n b b b 0 o p q r s t u t v w x y z = = # 9 A ",
"/ / % & & % a a a b B C D E q F G H I J K L L M N u O f f e P Q ",
". 7 % % % ( b R b D D S T U V W X Y Z `  .I ..+.+.r F @.#.$.%.V ",
"* - # # R R &.D O *.=.-.;.>.G Y ,.'.).!.~.{.].^. ././.>.(.(._.:.",
"& - $ <.[.g C S *.}.W |.1.Z Z 2.3.4.5.6.7.8.9.0.a.b.c.d.e.f.f.` ",
"- - - - b b D g.h.H X i.j.k.l.m.n.o.p.q.r.s.4.6.t.9.8.u.v.b.b.` ",
"w.x.y.z.e p U A.W  .i.B.C.D.m.E.p.o.o.F.r.G.4.5.H.t.8.I.v.J.u.].",
"K.: o o L.M.N.O.Y P.k.m.Q.R.S.p.p.T.T.U.G.V.W.X.Y.Z.7.`.v.v.J.u.",
"% % 0 f  +.+++@+#+$+%+&+*+=+-+;+T.T.T.U.G.V.W.X.>+,+H.7.'+v.)+b.",
"!+~+{+]+^+/+_.|.(+_+:+<+[+}+|+1+T.2+3+V.G.G.7.Z.H.Z.4+4+5+6+7+8+",
"% 9 9+0+a+@.H b+c+d+e+=+f+g+h+i+j+k+3+G.l+l+m+7.n+`.a.o+5+5+p+q+",
"h <.R o r+s+>.Y t+d+u+v+w+x+y+z+A+W.B+C+D+E+F+G+H+I+J+J+K+L+M+e.",
"& N+e p O+P+:.Y Q+R+e+S+1+T+U+T+V+W+t.`.X+Y+Z+`+ @.@+@@@#@$@%@&@",
"b e *@M.=@-@;@>@>@2.t+,@'@)@e+!@~@R+{@B.P.]@` ^@W A.U O+O+/@t (@",
"_@ +:@/+-@-@<@[@^.>@}@2.'.|@1@2@{@3@4@5@6@7@8@9@0@a@O+b@c@d@e@f@",
"g@h@N.i@;@G <@;@>@>@>@(+}@2.j@t+j.k@6@7@|.|.^@8@-.A.A.l@m@n@=@o@",
"p@q@r@r@Z p@s@` t@t@t@` ]@]@t+]@u@v@k@7@|.w@w@w@x@y@z@A@B@C@9@p@",
"t+t+j@P.2.j.b.` D@X b+E@b+|.t@r@F@G@q@^@w@H@I@I@x@J@K@L@M@N@P.2@",
"O@P@P@Q@|@}@j@c+ @E@R@R@S@T@;@U@V@W@1.|.H@I@x@X@L@Y@Z@`@ #P@.#!@",
"+#@###)@u+1@$#%#&#Y@K@K@*#H >.<@=#-#H *#K@;#X@>#Y@ #Q@,#u+'#*+)#",
"1+!#~#+#-+q.O@ #{#&# @ . .H H H z@z@]#R@R@^#>#/#{#'@q.(#=+_#:#<#",
"[#}#w+}+w+(#'#|#$#B.j@N@1#E@X t@b+E@;#>#2#,.3#4#u+(#[+5#f+5#6#7#",
"U+8#|+}+}+}+9#0#S.6.%+$+}@t+t+j@&#Z@a#b#c#s.n.o.9#[+5#f+d#e#7#f#",
"!#1+|+}+f+5#g#h#i#j#k#l#m#R+$#Q@n#o#p#S.5.q#q#r#s#t#u#u#v#6#6#v#",
"1+w#w+}+f+5#h#x#i#g#x#y#g#=+-+@#z#;+A#B#C#s#s#s#s#D#E#F#G#H#I#J#",
"i#i#i#i#i#[+f+5#f+f+f+5#5#f+K#}+i+i+i+e#e#H#6#6#L#L#M#N#s#O#;+P#",
"g#g#i#9#9#9#}+K#Q#g+z+h+R#S#T#U#V#W#X#T#Y#Z#`#u# $L#.$+$~#~#+$@$",
"#$$$&+E.=+=+}+}+%$h+y+&$U#*$=$-$;$>$,$'$;$)$!$~$L#i++${$]$@$F.n.",
"~.0.^$9.m.W+/$*+[+($}+_$:$<$[$}$|$Y#1$2$3$4$e#.$5$6$@$e+W+6.7$$#"};
