/* XPM */
static char * Floor4_xpm[] = {
"32 32 82 1",
" 	c #AC9674",
".	c #BC9E7C",
"+	c #BCA684",
"@	c #AC926C",
"#	c #AC9274",
"$	c #AC966C",
"%	c #C4AA84",
"&	c #B4A27C",
"*	c #BCA27C",
"=	c #BCAA84",
"-	c #B49E7C",
";	c #AC9A74",
">	c #B4A67C",
",	c #C4B28C",
"'	c #CCBA94",
")	c #BCAE8C",
"!	c #C4B294",
"~	c #BCAA8C",
"{	c #B4A284",
"]	c #C4AE8C",
"^	c #B49A74",
"/	c #B49A7C",
"(	c #AC8E6C",
"_	c #BCA284",
":	c #AC9E74",
"<	c #CCB694",
"[	c #D4BA94",
"}	c #C4AA8C",
"|	c #B49674",
"1	c #CCB28C",
"2	c #C4B68C",
"3	c #C4A684",
"4	c #CCAE8C",
"5	c #BCA67C",
"6	c #A48E6C",
"7	c #9C8664",
"8	c #A48E64",
"9	c #CCB294",
"0	c #C4A27C",
"a	c #CCAA8C",
"b	c #CCB68C",
"c	c #C4A67C",
"d	c #C4A284",
"e	c #BC9A74",
"f	c #CCAE84",
"g	c #BC9E74",
"h	c #B49A6C",
"i	c #C4AE84",
"j	c #B49E74",
"k	c #B49274",
"l	c #B4967C",
"m	c #A4926C",
"n	c #D4B694",
"o	c #CCAE94",
"p	c #CCB69C",
"q	c #BC9E84",
"r	c #B49E84",
"s	c #D4C29C",
"t	c #D4BE9C",
"u	c #CCBE94",
"v	c #CCB284",
"w	c #C4B694",
"x	c #BCB28C",
"y	c #CCC29C",
"z	c #BCAA7C",
"A	c #DCC69C",
"B	c #BCAE84",
"C	c #AC9A7C",
"D	c #9C825C",
"E	c #BC9A7C",
"F	c #C4A68C",
"G	c #A48A6C",
"H	c #AC8A6C",
"I	c #D4BA9C",
"J	c #C4AA7C",
"K	c #C49E84",
"L	c #D4BE94",
"M	c #C4BA94",
"N	c #CCBA9C",
"O	c #B4A684",
"P	c #AC8E74",
"Q	c #A48A64",
" .+. @#$+%+&*=-@;&==+>,'++)!~-{]",
".-^/**/( ^ $/%%_=&:+<[]&&-+]}*+!",
"*_*||*}1]1]%%,1],1!2,,)%+_+%+-^*",
"-*3-^_1[+41]+_.^^+15678-_***+*-&",
".-^*}1}.6|-..**-,1,]%5_5&--%]19<",
"33-|^.*-0_3_0+a9%%%]b9%*4%%%%%+c",
"]]3|6 +4433...*d%,<<1,1<114%*.^^",
"%3_*%4%*/e/..0_33_^ |/-**c%c3%f1",
"@@|_]1}**g^h@@@@$@#^+i4}j (66k^e",
"3+*+%}%*]%3+5+%%%%+%]4,%+%]11fd.",
"_.^^.*+366(@l*]4!,]%%+5_m ^.}444",
"3*_.+3]4n99o99pnn<n1]%%%'1=*--..",
"9b9]%+**/q-q*q.r+%]i%+}]i}]1114%",
"19113.l^#|/-*__*^j&_*+%]stu<,_;@",
"%}1]3+%]1b11]3*.]]419<<['',,1<n<",
" |^^^j+4+c%%fiv1<[<'[[[['<,b<b<<",
"&=ww,xbybz*55**0/*}]+- #55+^@@^*",
",,b''tttA[1+.e31]]%++_%]/*%%%=%B",
"-*_5_5*&    ##k/+*C(7D77+*C  ^*+",
"}4140-E*F+d}4}.#^.++%}+- |-++-67",
"...^k(GH///-qqq-#;_+]1%_]*|-+}49",
"4+E*}]0^GEa}*-+]1]%-*}~*##/4I9}+",
"3+*3]4}+|%13^@m@&-#6 +]+_ #/--._",
"@-%+j|&JKg$@^%ii+F*/.%* F-r}}_/-",
"]* -}1]+*-^;-*!t]]]]+{_+%+5=)=)2",
"9]+*_-^#&/ (G6/%%-@G776 +i,<Lu'M",
"6 -_&_%]3+*-^/%N}/66;_%,-*--O,,=",
"-3}]3+}1I<,}+&+]<]&_%}=Fi]i5]'<=",
"6 ^&_%]<]}%]1o]1]+%]]}++*~i=]n% ",
"]3+__- (677#*++_*&+},1<I'<]3i19%",
"+%}<[t<]1}+}]]%+]}+++_+i,%-  ^..",
"++]<[<3-PQ6 -_3]]}=}]]]9]]1<1.|@"};
