/* XPM */
static char * gay_bag_xpm[] = {
"32 32 456 2",
"  	c #D7AF8C",
". 	c #D9B18E",
"+ 	c #DCB491",
"@ 	c #DFB794",
"# 	c #D8B190",
"$ 	c #D6AF8E",
"% 	c #DBB493",
"& 	c #DCB594",
"* 	c #DAB392",
"= 	c #D7B08F",
"- 	c #D9B291",
"; 	c #DEB894",
"> 	c #DFB995",
", 	c #DDB592",
"' 	c #D5AD89",
") 	c #D2AA86",
"! 	c #D1A781",
"~ 	c #D3A983",
"{ 	c #D7AD87",
"] 	c #D9AF89",
"^ 	c #DAAE89",
"/ 	c #DBB390",
"( 	c #D9B593",
"_ 	c #DCB596",
": 	c #DEB796",
"< 	c #DFB897",
"[ 	c #DBB591",
"} 	c #D3AC8B",
"| 	c #CEA683",
"1 	c #D4AC89",
"2 	c #D1A985",
"3 	c #D0A884",
"4 	c #D2A882",
"5 	c #D5AA87",
"6 	c #DBB08D",
"7 	c #DAB28F",
"8 	c #DEB693",
"9 	c #DDB695",
"0 	c #D9B595",
"a 	c #D8B494",
"b 	c #D7B393",
"c 	c #D6B393",
"d 	c #D9B497",
"e 	c #DBB797",
"f 	c #DCB898",
"g 	c #D4B090",
"h 	c #D2AB8A",
"i 	c #D0A988",
"j 	c #D0AA86",
"k 	c #D1AB87",
"l 	c #D3AB88",
"m 	c #D6AE8A",
"n 	c #D8B492",
"o 	c #DAB696",
"p 	c #DAB799",
"q 	c #DBB89A",
"r 	c #D7B599",
"s 	c #D3B195",
"t 	c #D2AF91",
"u 	c #D1AE90",
"v 	c #D3B092",
"w 	c #D5B191",
"x 	c #CBA787",
"y 	c #CFAB89",
"z 	c #D3AF8D",
"A 	c #DFBB9B",
"B 	c #D6B194",
"C 	c #D6B395",
"D 	c #27273C",
"E 	c #26283C",
"F 	c #CCAA8E",
"G 	c #C9A78B",
"H 	c #CAA789",
"I 	c #CBA88A",
"J 	c #D8B597",
"K 	c #DDB999",
"L 	c #DEBB9D",
"M 	c #D6B292",
"N 	c #D7B496",
"O 	c #FCB5F3",
"P 	c #FBB5F3",
"Q 	c #FCB5F4",
"R 	c #26263D",
"S 	c #D7B89C",
"T 	c #D2B397",
"U 	c #D0B195",
"V 	c #DCBA9E",
"W 	c #E0BEA2",
"X 	c #E1BEA2",
"Y 	c #E0BDA1",
"Z 	c #DFBCA0",
"` 	c #DDBB9F",
" .	c #D7B295",
"..	c #D8B69A",
"+.	c #F9B7F2",
"@.	c #E46ACA",
"#.	c #27263F",
"$.	c #26273E",
"%.	c #E36ACA",
"&.	c #FAB6F2",
"*.	c #25283B",
"=.	c #E5C7AF",
"-.	c #E5C7AD",
";.	c #DCBEA4",
">.	c #DDBDA4",
",.	c #DFC0A4",
"'.	c #E3C1A6",
").	c #E2C0A5",
"!.	c #DEBFA3",
"~.	c #D4AD8C",
"{.	c #D2AE8E",
"].	c #D8B798",
"^.	c #FAB7F4",
"/.	c #E36ACB",
"(.	c #E2C4AA",
"_.	c #E0C4AC",
":.	c #E1C6B1",
"<.	c #E3C8B3",
"[.	c #E6CBB6",
"}.	c #E369CB",
"|.	c #FAB7F3",
"1.	c #26273C",
"2.	c #E8CCB4",
"3.	c #E6C7B2",
"4.	c #E1C3AB",
"5.	c #DDBFA7",
"6.	c #DEBEA5",
"7.	c #E1C1AA",
"8.	c #E3C3AA",
"9.	c #E0C2A8",
"0.	c #D6B498",
"a.	c #DEBCA1",
"b.	c #27263E",
"c.	c #E0C5AA",
"d.	c #E2C6AE",
"e.	c #E4C8B0",
"f.	c #E4CAB3",
"g.	c #E2C7B2",
"h.	c #E2C9B5",
"i.	c #E1C8B4",
"j.	c #E0C7B1",
"k.	c #FCB6F3",
"l.	c #E5CBB4",
"m.	c #E5C9B4",
"n.	c #E5C9B3",
"o.	c #E3C7B1",
"p.	c #E4C6AE",
"q.	c #E2C3AE",
"r.	c #E6BF9E",
"s.	c #E4BD9C",
"t.	c #E1BA99",
"u.	c #DCB896",
"v.	c #DBB99D",
"w.	c #DABB9E",
"x.	c #DCBDA1",
"y.	c #26263E",
"z.	c #E2C8AF",
"A.	c #E2CAB2",
"B.	c #E4CBB5",
"C.	c #E0C7B3",
"D.	c #FBB6F3",
"E.	c #E6CAB5",
"F.	c #E1C5AF",
"G.	c #E3C4AF",
"H.	c #E0B998",
"I.	c #25263D",
"J.	c #E36ACC",
"K.	c #25263C",
"L.	c #26273D",
"M.	c #E14AB9",
"N.	c #26283F",
"O.	c #E26BCC",
"P.	c #E46ACB",
"Q.	c #E469CC",
"R.	c #28273F",
"S.	c #24273E",
"T.	c #E26BCB",
"U.	c #27263D",
"V.	c #E4C5B0",
"W.	c #E1C2AD",
"X.	c #E2BB9A",
"Y.	c #E3BC9B",
"Z.	c #E2BE9E",
"`.	c #E3BF9F",
" +	c #FDFEF6",
".+	c #FDFFF5",
"++	c #FDFFF4",
"@+	c #FCFFF5",
"#+	c #FBFFF4",
"$+	c #27283F",
"%+	c #E26ACA",
"&+	c #FBB6F4",
"*+	c #FAB6F3",
"=+	c #25283D",
"-+	c #E16BCB",
";+	c #E9CAB5",
">+	c #E7C8B3",
",+	c #E6C6B1",
"'+	c #E4C4AD",
")+	c #DEBA9A",
"!+	c #E1BD9D",
"~+	c #F9FFF4",
"{+	c #28283F",
"]+	c #FBB5F4",
"^+	c #E16BCA",
"/+	c #E9C9B4",
"(+	c #E8C8B1",
"_+	c #FDFEF4",
":+	c #FCFEF5",
"<+	c #FCFFF4",
"[+	c #FCB6F2",
"}+	c #E26BCA",
"|+	c #E26ACB",
"1+	c #DDBDA6",
"2+	c #DEBEA7",
"3+	c #E0C0A9",
"4+	c #DAB694",
"5+	c #875127",
"6+	c #875126",
"7+	c #875125",
"8+	c #25273E",
"9+	c #FBB7F3",
"0+	c #885227",
"a+	c #885224",
"b+	c #FBB6F2",
"c+	c #CEAE95",
"d+	c #D1AF94",
"e+	c #D4B299",
"f+	c #D6B499",
"g+	c #DFBA9D",
"h+	c #E0BD9F",
"i+	c #27273D",
"j+	c #FBB5F2",
"k+	c #EAED17",
"l+	c #EBED17",
"m+	c #885126",
"n+	c #EAEE1B",
"o+	c #26273B",
"p+	c #FCCF36",
"q+	c #FCB5F2",
"r+	c #DBBA9B",
"s+	c #D8B595",
"t+	c #CCA98B",
"u+	c #DCB99B",
"v+	c #DFBC9E",
"w+	c #E2BFA1",
"x+	c #E2C1A2",
"y+	c #865128",
"z+	c #EBEE17",
"A+	c #ECEE17",
"B+	c #FCCF38",
"C+	c #FCCF39",
"D+	c #ECED1B",
"E+	c #875226",
"F+	c #FBCF39",
"G+	c #27273F",
"H+	c #FBCE38",
"I+	c #DDBC9B",
"J+	c #DDBB98",
"K+	c #D9B696",
"L+	c #D5B292",
"M+	c #E2C0A4",
"N+	c #E4C2A6",
"O+	c #E5C3A7",
"P+	c #E3C4A7",
"Q+	c #865127",
"R+	c #FCCE37",
"S+	c #FCCF3C",
"T+	c #894F2C",
"U+	c #89502A",
"V+	c #FCCF3B",
"W+	c #86522A",
"X+	c #2B2640",
"Y+	c #875128",
"Z+	c #DDBE9F",
"`+	c #E0BF9E",
" @	c #E0BFA0",
".@	c #DEBD9E",
"+@	c #E1C3A7",
"@@	c #E2C4A8",
"#@	c #E3C5A9",
"$@	c #FAFFF4",
"%@	c #FBCE37",
"&@	c #875028",
"*@	c #E269CD",
"=@	c #DCBFA1",
"-@	c #DEC1A3",
";@	c #E0C3A5",
">@	c #DEC2AA",
",@	c #DFC3AB",
"'@	c #DFC4A9",
")@	c #865029",
"!@	c #EEEE1C",
"~@	c #FBCF36",
"{@	c #E16BC9",
"]@	c #FBB7F1",
"^@	c #875225",
"/@	c #FCCF37",
"(@	c #FBCE3B",
"_@	c #895028",
":@	c #D9BEA3",
"<@	c #DBC0A5",
"[@	c #E0C6AD",
"}@	c #DCC3AD",
"|@	c #DBC3AB",
"1@	c #DDC3AC",
"2@	c #FAFEF4",
"3@	c #885127",
"4@	c #FCCF3A",
"5@	c #885124",
"6@	c #FBB6F1",
"7@	c #E26BC9",
"8@	c #895226",
"9@	c #895127",
"0@	c #DAC0A9",
"a@	c #DFC7AF",
"b@	c #E3CAB4",
"c@	c #DCC6B1",
"d@	c #DBC5B0",
"e@	c #DAC4AF",
"f@	c #DDC4AE",
"g@	c #FDFDF6",
"h@	c #864F2A",
"i@	c #FCCE40",
"j@	c #875123",
"k@	c #FBB6EE",
"l@	c #885122",
"m@	c #894F2D",
"n@	c #E46BC9",
"o@	c #DFC6B0",
"p@	c #DFC9B2",
"q@	c #E4CEB7",
"r@	c #E7D2BD",
"s@	c #DEC9B6",
"t@	c #DCC7B4",
"u@	c #DBC4B2",
"v@	c #FDFEF5",
"w@	c #F8B8F3",
"x@	c #F9B7F3",
"y@	c #FCB5F5",
"z@	c #88502B",
"A@	c #FCCE3C",
"B@	c #FBD036",
"C@	c #875222",
"D@	c #FBCD3C",
"E@	c #89502E",
"F@	c #E16ACB",
"G@	c #E2CCB7",
"H@	c #E4CFBA",
"I@	c #E9D4C1",
"J@	c #EBD9C5",
"K@	c #DDCAB9",
"L@	c #DECCB8",
"M@	c #E1CCB9",
"N@	c #E2CDBA",
"O@	c #FDFCF6",
"P@	c #FCFCF6",
"Q@	c #88502D",
"R@	c #FBCE3E",
"S@	c #FBCE3C",
"T@	c #8B502E",
"U@	c #E26CCA",
"V@	c #E4CFBC",
"W@	c #E5D0BD",
"X@	c #E7D2C1",
"Y@	c #E8D5C4",
"Z@	c #DBC8B7",
"`@	c #DCC9B8",
" #	c #E0CBB8",
".#	c #E16AC9",
"+#	c #FCB4F5",
"@#	c #E3CEBD",
"##	c #E5D0BF",
"$#	c #EBD8C7",
"%#	c #FBF6F4",
"&#	c #F9BBF2",
"*#	c #F8BBF2",
"=#	c #F9BAF2",
"-#	c #905A43",
";#	c #E36FCD",
">#	c #FAB5F3",
",#	c #FAB1F2",
"'#	c #DB6BC6",
")#	c #E8D3C2",
"!#	c #DFCAB7",
"~#	c #FBF9F7",
"{#	c #FCF9F7",
"]#	c #FCF9F6",
"^#	c #FCB1F3",
"/#	c #FCB1F4",
"(#	c #FBB1F3",
"_#	c #E568CB",
":#	c #DC6DC7",
"<#	c #EFDAC9",
"[#	c #ECD7C6",
"}#	c #E6D1C0",
"|#	c #E0CBBA",
"1#	c #DCC7B6",
"2#	c #E4CEB9",
"3#	c #E5CFBA",
"4#	c #D465BF",
"5#	c #D246AF",
"6#	c #EBD4C4",
"7#	c #E9D2C2",
"8#	c #E6CFBD",
"9#	c #E1CAB8",
"0#	c #DCC5B3",
"a#	c #D8C1AF",
"b#	c #E6D0BB",
"c#	c #E3CDB8",
"d#	c #EAD5C4",
"e#	c #E3CCBC",
"f#	c #DDC6B4",
"g#	c #DFC6B2",
"h#	c #E8CFB9",
"i#	c #E7CEB8",
"j#	c #E6CDB7",
"k#	c #E4D1C0",
"l#	c #E2CFBE",
"m#	c #E1CEBF",
"n#	c #E2D1C1",
"o#	c #E6D5C5",
"p#	c #E7D7C7",
"q#	c #E8D6C8",
"r#	c #E6D6C7",
"s#	c #E9D7CB",
"t#	c #E9D9CC",
"u#	c #EAD8CC",
"v#	c #EAD8CA",
"w#	c #E7D5C7",
"x#	c #E6D3C5",
"y#	c #E5D2C3",
"z#	c #E4CFBE",
"A#	c #D9C2B0",
"B#	c #DCC2B1",
"C#	c #E9CDB5",
"D#	c #E6CAB2",
"E#	c #E5CAB5",
"F#	c #E5CCB6",
"G#	c #E2CDB8",
"H#	c #E3D1BD",
"I#	c #E7D4C3",
"J#	c #E7D6C4",
"K#	c #E5D4C2",
"L#	c #E3D2C2",
"M#	c #E4D1C3",
"N#	c #E7D4C6",
"O#	c #EAD7C9",
"P#	c #ECD9CA",
"Q#	c #EDD7C9",
"R#	c #EAD4C6",
"S#	c #DFC8B6",
"T#	c #DDC7B2",
"U#	c #E1C8B2",
"V#	c #E1C7B0",
"W#	c #DEC4AD",
"  . + @ @ + # $ % % & & % * = $ % - # * ; > @ , ' ) ! ~ { ] ^ ' ",
"/ / + + + + * * & & & & % * - # % ( _ : < [ } | 1 2 3 4 5 ] 6 7 ",
"8 , / 7 - * & 9 & & 0 a a a 0 0 b c d e f ( g h i j k ) l m / : ",
", , + / * % & & % n b b b 0 o p q r s t u t v w x y z = = # 9 A ",
"/ / % & & % a a a b B C D D D D D D D E F G G H I u J f f e K L ",
". 7 % % % ( b M b N N D O P P P P P P Q R S T U U r V W X Y Z ` ",
"* - # # M M  .N J ..D +.@.D D D #.#.$.%.&.*.=.-.;.>.>.,.'.'.).!.",
"& - $ ~.{.g C ]...D ^./.D (.(._.:.<.[.D }.|.1.2.3.4.5.6.7.8.8.9.",
"- - - - b b N 0.a.$.Q b.c.d.e.f.g.h.i.j.D k.D l.m.n.o.p.q.4.4.9.",
"r.s.t.u.e p v.w.x.$.Q y.z.A.f.B.i.h.h.C.D D.D [.E.m.o.F.q.G.p.=.",
"H.: o o D D D D I.$.J.b.K.L.L.L.D D D D y.M.N.D L.$.L.L.q.q.G.p.",
"% % 0 f D O.Q Q Q $.$.$.O P.P.P.P.P.Q.R.y.$.S.J.L.T.P.U.V.q.W.4.",
"X.Y.Z.`.D J. +.+++@+@+@+#+P P P P P O $+%+&+*+O =+-+k.L.;+>+,+'+",
"% 9 )+!+D J..+++++Q P P ~+P P P P P P {+/.]+P /.L.^+O L.;+;+/+(+",
"h ~.M o D J..+++_+D.:+++<+P P P k.k.[+$+}+]+&.U.%+|+O L.1+2+3+7.",
"& 4+e p D J..+<+Q P ]+.+<+P P k.5+6+7+D 8+9+0+L.a+b+O L.c+d+e+f+",
"b e g+h+i+J..+<+P j+P .+<+P j+a+k+l+l+m+y.m+n+o+p+0+q+D r+s+t t+",
"u+v+w+x+i+J..+++:+:+:+@+<+P y+z+A+B+C+D+E+F+G+F+B+H+5+D I+J+K+L+",
"M+N+O+P+i+J..+<+Q +.+.P ~+P Q+z+R+S+T+U+V+W+X+Y+B+H+6+D Z+`+ @.@",
"+@@@#@#@i+J..+<+]+$@<+*+~+P Q+z+%@5+/./.&@L.*@Q+B+H+6+D =@-@;@+@",
">@>@,@'@i+J..+&+P ~+]+P ~+Q )@!@~@7+{@]+O.}.]@^@/@(@_@D :@<@'@[@",
"}@|@|@1@i+J..++.&.2@|.&.$@P j+3@4@B+5@6@P 7@8@B+B+9@P.D 0@|@a@b@",
"c@d@e@f@i+J..+g@g@g@g@++<+P P P h@i@/@j@k@l@B+i@m@n@P.D o@p@q@r@",
"s@t@u@c@i+J.v@w@x@y@+..+<+P P P ]+z@A@B@C@~@D@E@Q.F@P.D G@H@I@J@",
"K@L@M@N@D J..+<+O@D.P@++<+P P P P P Q@R@/@S@T@/.U@]+/.U.V@W@X@Y@",
"Z@`@ #N@D J..+<+]+P O .+<+P P P P P ]+)@S+T+-+.#]++#/.U.@###Y@$#",
"t@s@ #N@D J.%#<+&#*#=#.+<+P P P P P P ]+-#;#>#&.,#P.'#$.)#X@X@)#",
"s@!#M@N@V@D J.~#{#{#{#{#]#^#/#/#/#/#/#/#^#/#/#(#_#:#$.<#[#}#|#1#",
"2#2#2#2#2#3#D 4#4#4#4#4#4#5#5#5#5#5#5#5#5#5#5#5#5#$.6#7#8#9#0#a#",
"b#b#2#c#c#c#N@D $.$.$.$.$.$.$.$.D D D D D D D D $.d#e#f#u@u@f#g#",
"h#i#j#B.G@G@N@N@k#l#m#n#o#p#q#r#s#t#u#v#s#w#x#y#d#z#f#A#B#g#C.g.",
"C#2.D#n.f.E#F#q@3#G#N@H#I#J#K#L#M#N#O#P#Q#R###e#S#T#g#U#E#l.V#W#"};
