/* XPM */
static char * Player1_xpm[] = {
"32 32 678 2",
"  	c #D7AF8C",
". 	c #D9B18E",
"+ 	c #DCB491",
"@ 	c #DFB794",
"# 	c #D8B190",
"$ 	c #D6AF8E",
"% 	c #DBB493",
"& 	c #DCB594",
"* 	c #DAB392",
"= 	c #D7B08F",
"- 	c #D9B291",
"; 	c #DEB894",
"> 	c #DFB995",
", 	c #DDB592",
"' 	c #D5AD89",
") 	c #D2AA86",
"! 	c #D1A781",
"~ 	c #D3A983",
"{ 	c #D7AD87",
"] 	c #D9AF89",
"^ 	c #DAAE89",
"/ 	c #D2B69F",
"( 	c #CEB7A5",
"_ 	c #D9B593",
": 	c #DCB596",
"< 	c #DEB796",
"[ 	c #DFB897",
"} 	c #DBB591",
"| 	c #D3AC8B",
"1 	c #CEA683",
"2 	c #D4AC89",
"3 	c #D1A985",
"4 	c #D0A884",
"5 	c #D2A882",
"6 	c #D5AA87",
"7 	c #DBB08D",
"8 	c #DAB28F",
"9 	c #DCB696",
"0 	c #D7B69C",
"a 	c #C2BBB6",
"b 	c #D7B394",
"c 	c #D9B292",
"d 	c #DDB695",
"e 	c #D9B595",
"f 	c #D8B494",
"g 	c #836A56",
"h 	c #7F6655",
"i 	c #7F6654",
"j 	c #7F6653",
"k 	c #7D6353",
"l 	c #D3B091",
"m 	c #DCB898",
"n 	c #D4B090",
"o 	c #D2AB8A",
"p 	c #D0A988",
"q 	c #D0AA86",
"r 	c #D1AB87",
"s 	c #D3AB88",
"t 	c #D6AE8A",
"u 	c #DBB390",
"v 	c #D5B69C",
"w 	c #C9B9AD",
"x 	c #CBB8A9",
"y 	c #D1B7A3",
"z 	c #D8B492",
"A 	c #D7B393",
"B 	c #D4B091",
"C 	c #997855",
"D 	c #D17C2E",
"E 	c #BF611F",
"F 	c #BC5A1E",
"G 	c #BE652E",
"H 	c #A72A07",
"I 	c #83503F",
"J 	c #D1AE90",
"K 	c #D2AF91",
"L 	c #D3B092",
"M 	c #D5B191",
"N 	c #CBA787",
"O 	c #CFAB89",
"P 	c #D3AF8D",
"Q 	c #DFBB9B",
"R 	c #DAB597",
"S 	c #D5B69D",
"T 	c #CFB7A3",
"U 	c #D6B194",
"V 	c #D6B395",
"W 	c #D0AE90",
"X 	c #AC7437",
"Y 	c #E59554",
"Z 	c #DE8B4B",
"` 	c #B4561A",
" .	c #6A2205",
"..	c #B25D1D",
"+.	c #A23E12",
"@.	c #7A5440",
"#.	c #C7A589",
"$.	c #C9A78B",
"%.	c #CAA789",
"&.	c #CBA88A",
"*.	c #D8B597",
"=.	c #DBB797",
"-.	c #DDB999",
";.	c #DEBB9D",
">.	c #CFB6A1",
",.	c #CCB6A5",
"'.	c #D7B496",
").	c #D8B798",
"!.	c #D3AF94",
"~.	c #7F4631",
"{.	c #896451",
"].	c #846251",
"^.	c #8B6150",
"/.	c #873E23",
"(.	c #913A0D",
"_.	c #631A02",
":.	c #734630",
"<.	c #D4B59A",
"[.	c #D2B397",
"}.	c #D0B195",
"|.	c #D7B599",
"1.	c #DCBA9E",
"2.	c #E0BEA2",
"3.	c #E1BEA2",
"4.	c #E0BDA1",
"5.	c #DFBCA0",
"6.	c #DDBB9F",
"7.	c #D6B292",
"8.	c #D7B295",
"9.	c #D6B497",
"0.	c #D8B69A",
"a.	c #DAB89C",
"b.	c #DBBC9F",
"c.	c #D6B59B",
"d.	c #A78874",
"e.	c #F3D5BA",
"f.	c #F2D6BA",
"g.	c #C6AF9B",
"h.	c #755145",
"i.	c #843A10",
"j.	c #4E1000",
"k.	c #70452F",
"l.	c #E5C7AF",
"m.	c #E5C7AD",
"n.	c #DCBEA4",
"o.	c #DDBDA4",
"p.	c #DFC0A4",
"q.	c #E3C1A6",
"r.	c #E2C0A5",
"s.	c #DEBFA3",
"t.	c #D4AD8C",
"u.	c #D2AE8E",
"v.	c #D8B99C",
"w.	c #DCBDA1",
"x.	c #DEC0A4",
"y.	c #D8BBA0",
"z.	c #796A5C",
"A.	c #A4917D",
"B.	c #EDD2B6",
"C.	c #A89B8B",
"D.	c #6B5753",
"E.	c #BB5E49",
"F.	c #633C35",
"G.	c #764B37",
"H.	c #E0C4AE",
"I.	c #E5C9B3",
"J.	c #E8CCB4",
"K.	c #E6C7B2",
"L.	c #E1C3AB",
"M.	c #DDBFA7",
"N.	c #DEBEA5",
"O.	c #E1C1AA",
"P.	c #E3C3AA",
"Q.	c #E0C2A8",
"R.	c #D6B498",
"S.	c #DEBCA1",
"T.	c #DDBEA2",
"U.	c #DDBFA5",
"V.	c #DDC2A7",
"W.	c #D8BDA3",
"X.	c #875547",
"Y.	c #847868",
"Z.	c #E4CCB1",
"`.	c #B79B84",
" +	c #877365",
".+	c #DEA283",
"++	c #9C6351",
"@+	c #B76A4F",
"#+	c #DEC2AD",
"$+	c #E3C8B3",
"%+	c #E5CBB4",
"&+	c #E5C9B4",
"*+	c #E3C7B1",
"=+	c #E4C6AE",
"-+	c #E2C3AE",
";+	c #E6BF9E",
">+	c #E4BD9C",
",+	c #E1BA99",
"'+	c #DCB896",
")+	c #DAB799",
"!+	c #DBB99D",
"~+	c #DABB9E",
"{+	c #DFC5AC",
"]+	c #D9BFA7",
"^+	c #A7826B",
"/+	c #EED5B6",
"(+	c #E9D1B7",
"_+	c #F4CFB2",
":+	c #ECC3A6",
"<+	c #EA9F72",
"[+	c #80463E",
"}+	c #7E4A38",
"|+	c #DEC3B0",
"1+	c #E6CBB6",
"2+	c #E6CAB5",
"3+	c #E1C5AF",
"4+	c #E3C4AF",
"5+	c #E0B998",
"6+	c #DAB696",
"7+	c #DDB89B",
"8+	c #E0BD9F",
"9+	c #E5C3A7",
"0+	c #E6C7AB",
"a+	c #DFC1A7",
"b+	c #DFC4A9",
"c+	c #E2C6AE",
"d+	c #E4CAB3",
"e+	c #DBC3AC",
"f+	c #976B56",
"g+	c #E1BCA0",
"h+	c #D97A6B",
"i+	c #EA917E",
"j+	c #DDA788",
"k+	c #A45C40",
"l+	c #742201",
"m+	c #894F33",
"n+	c #DFC4B1",
"o+	c #E5CAB7",
"p+	c #E7CCB9",
"q+	c #E9CDB8",
"r+	c #E7CBB6",
"s+	c #E4C8B3",
"t+	c #E1C5B0",
"u+	c #DFBC9E",
"v+	c #E3C2A3",
"w+	c #E8C6AB",
"x+	c #E8CAAE",
"y+	c #E3C8AD",
"z+	c #E4CAB1",
"A+	c #E6CCB5",
"B+	c #E6CDB7",
"C+	c #DEC6AF",
"D+	c #B76428",
"E+	c #73564A",
"F+	c #887067",
"G+	c #A37B6E",
"H+	c #864B3F",
"I+	c #5A2A48",
"J+	c #95492C",
"K+	c #9D5F3D",
"L+	c #EACEB9",
"M+	c #E8CCB7",
"N+	c #E4C5B0",
"O+	c #E1C2AD",
"P+	c #E2BB9A",
"Q+	c #E3BC9B",
"R+	c #E2BE9E",
"S+	c #E3BF9F",
"T+	c #E3C0A2",
"U+	c #E2C1A2",
"V+	c #E2C7AC",
"W+	c #E3C9B0",
"X+	c #E5CDB5",
"Y+	c #E5CFB8",
"Z+	c #DEC8B3",
"`+	c #597C70",
" @	c #46C29D",
".@	c #489C90",
"+@	c #B7A799",
"@@	c #627155",
"#@	c #1A8EBB",
"$@	c #409C9E",
"%@	c #CFBBAA",
"&@	c #E1C6B3",
"*@	c #EACBB6",
"=@	c #E9CAB5",
"-@	c #E7C8B3",
";@	c #E6C6B1",
">@	c #E4C4AD",
",@	c #DEBA9A",
"'@	c #E1BD9D",
")@	c #E1BEA0",
"!@	c #DBBDA3",
"~@	c #DDC1A9",
"{@	c #DDC5AD",
"]@	c #E1C8B2",
"^@	c #E2CCB7",
"/@	c #6EC9C0",
"(@	c #2E96A3",
"_@	c #4CEFD9",
":@	c #1EEAE0",
"<@	c #2AC9C0",
"[@	c #23E3C6",
"}@	c #11B5C5",
"|@	c #509E94",
"1@	c #3C99A9",
"2@	c #DBC1AF",
"3@	c #E2C6B1",
"4@	c #DFC3AE",
"5@	c #E8C9B4",
"6@	c #E9C9B4",
"7@	c #E8C8B1",
"8@	c #DDBA9C",
"9@	c #DFBDA1",
"0@	c #DEC2AA",
"a@	c #DFC6B0",
"b@	c #E0CAB5",
"c@	c #628F92",
"d@	c #3990A3",
"e@	c #46F3EF",
"f@	c #31F2BB",
"g@	c #3EF3B1",
"h@	c #21FAE9",
"i@	c #00AFD9",
"j@	c #5B888D",
"k@	c #1CA7D2",
"l@	c #D9BDAE",
"m@	c #E1C2AE",
"n@	c #E2C3AF",
"o@	c #DDBEA9",
"p@	c #DCBDA8",
"q@	c #DDBDA8",
"r@	c #DDBDA6",
"s@	c #DEBEA7",
"t@	c #E0C0A9",
"u@	c #DAB694",
"v@	c #DBBA9B",
"w@	c #DEBCA0",
"x@	c #E3C7AF",
"y@	c #E2C8B1",
"z@	c #DFC9B4",
"A@	c #5C878D",
"B@	c #3892A6",
"C@	c #44F1E6",
"D@	c #34E29D",
"E@	c #1BFAE5",
"F@	c #31F4B5",
"G@	c #00B1DA",
"H@	c #548A93",
"I@	c #19A8D6",
"J@	c #D8BDAB",
"K@	c #DFC0AB",
"L@	c #E0C2AA",
"M@	c #DCBEA6",
"N@	c #D9BBA3",
"O@	c #D4B49D",
"P@	c #D0B097",
"Q@	c #CEAE95",
"R@	c #D1AF94",
"S@	c #D4B299",
"T@	c #D6B499",
"U@	c #DFBA9D",
"V@	c #E0BFA0",
"W@	c #E1BFA3",
"X@	c #E2C3A7",
"Y@	c #E4C6AC",
"Z@	c #E0C4AC",
"`@	c #DBC1AA",
" #	c #507173",
".#	c #33859B",
"+#	c #44F3DE",
"@#	c #4EDE7C",
"##	c #26F5D4",
"$#	c #14EEE7",
"%#	c #007DB5",
"&#	c #508A98",
"*#	c #17AAD7",
"=#	c #DAC0A9",
"-#	c #DFC1A5",
";#	c #D8B595",
">#	c #CCA98B",
",#	c #DCB99B",
"'#	c #E2BFA1",
")#	c #E1C2A6",
"!#	c #E4C5A9",
"~#	c #E1C5AD",
"{#	c #4B6567",
"]#	c #317A91",
"^#	c #3BF5ED",
"/#	c #33E6A4",
"(#	c #12FBF5",
"_#	c #15EFEF",
":#	c #0099D7",
"<#	c #4E8A96",
"[#	c #15AAD4",
"}#	c #D9BFA6",
"|#	c #DFC2A4",
"1#	c #E0C3A5",
"2#	c #DCBDA0",
"3#	c #DABB9C",
"4#	c #DCBB9A",
"5#	c #DDBC9B",
"6#	c #DDBB98",
"7#	c #D9B696",
"8#	c #D5B292",
"9#	c #E2C0A4",
"0#	c #E4C2A6",
"a#	c #E3C4A7",
"b#	c #E0C1A5",
"c#	c #537F85",
"d#	c #3484A2",
"e#	c #58E8B3",
"f#	c #29ECBD",
"g#	c #30F3C6",
"h#	c #46F09F",
"i#	c #0FAFC4",
"j#	c #517D92",
"k#	c #1889CC",
"l#	c #DABDA5",
"m#	c #DBBC9D",
"n#	c #DDBE9F",
"o#	c #E0BF9E",
"p#	c #DEBD9E",
"q#	c #E1C3A7",
"r#	c #E2C4A8",
"s#	c #E3C5A9",
"t#	c #E2C4AA",
"u#	c #E1C1A8",
"v#	c #E1C3A9",
"w#	c #507C80",
"x#	c #30859C",
"y#	c #3BCEE1",
"z#	c #0ECEE3",
"A#	c #0FCEDF",
"B#	c #0BCCDE",
"C#	c #0590C0",
"D#	c #40788B",
"E#	c #1089C1",
"F#	c #D9BCA3",
"G#	c #DDBFA3",
"H#	c #D9BB9F",
"I#	c #D8BB9D",
"J#	c #D9BA9E",
"K#	c #D9BC9E",
"L#	c #DCBFA1",
"M#	c #DEC1A3",
"N#	c #DFC3AB",
"O#	c #E0C5AA",
"P#	c #DEC0A6",
"Q#	c #DABCA2",
"R#	c #445157",
"S#	c #1D425F",
"T#	c #203F6A",
"U#	c #1B4074",
"V#	c #103870",
"W#	c #072C6A",
"X#	c #031E4F",
"Y#	c #20485C",
"Z#	c #23396A",
"`#	c #D7BA9E",
" $	c #DABCA0",
".$	c #D7BC9F",
"+$	c #D9BBA1",
"@$	c #D7BCA1",
"#$	c #D9BEA3",
"$$	c #DBC0A5",
"%$	c #E0C6AD",
"&$	c #DCC3AD",
"*$	c #DBC3AB",
"=$	c #DDC3AC",
"-$	c #DFC5AE",
";$	c #D7B99F",
">$	c #797267",
",$	c #8B7670",
"'$	c #1C567E",
")$	c #1E1120",
"!$	c #59101A",
"~$	c #163A5D",
"{$	c #000E2B",
"]$	c #85857F",
"^$	c #A17F6F",
"/$	c #D7B99D",
"($	c #D6BBA0",
"_$	c #D8BCA4",
":$	c #DABEA6",
"<$	c #DFC7AF",
"[$	c #E3CAB4",
"}$	c #DCC6B1",
"|$	c #DBC5B0",
"1$	c #DAC4AF",
"2$	c #DDC4AE",
"3$	c #E0C6AF",
"4$	c #DEC4AD",
"5$	c #DBC1A8",
"6$	c #D9BDA5",
"7$	c #C1A48B",
"8$	c #87706A",
"9$	c #19689B",
"0$	c #3E3735",
"a$	c #DEBEA1",
"b$	c #69758A",
"c$	c #001B37",
"d$	c #8E6D5A",
"e$	c #C8A489",
"f$	c #D8BAA0",
"g$	c #D6BAA2",
"h$	c #DEC6AE",
"i$	c #DFC9B2",
"j$	c #E4CEB7",
"k$	c #E7D2BD",
"l$	c #DEC9B6",
"m$	c #DCC7B4",
"n$	c #DBC4B2",
"o$	c #E0C7B1",
"p$	c #D8BEA7",
"q$	c #DCBCA2",
"r$	c #947D75",
"s$	c #166499",
"t$	c #403D39",
"u$	c #67768F",
"v$	c #002039",
"w$	c #BB9A83",
"x$	c #D5B9A1",
"y$	c #D6BCA5",
"z$	c #DBC2AC",
"A$	c #E1CBB6",
"B$	c #E4CFBA",
"C$	c #E9D4C1",
"D$	c #EBD9C5",
"E$	c #DDCAB9",
"F$	c #DECCB8",
"G$	c #E1CCB9",
"H$	c #E2CDBA",
"I$	c #E0C8B0",
"J$	c #D8BDA2",
"K$	c #96877F",
"L$	c #0F5787",
"M$	c #413D3A",
"N$	c #667088",
"O$	c #021D36",
"P$	c #CCB29B",
"Q$	c #D7BBA3",
"R$	c #DABEA8",
"S$	c #DDC1AB",
"T$	c #DEC3AE",
"U$	c #E5CFBA",
"V$	c #E5D0BD",
"W$	c #E4CFBC",
"X$	c #E7D2C1",
"Y$	c #E8D5C4",
"Z$	c #DBC8B7",
"`$	c #DCC9B8",
" %	c #E0CBB8",
".%	c #E3CDB8",
"+%	c #E2CCB5",
"@%	c #E2C9B3",
"#%	c #9A8A7F",
"$%	c #143778",
"%%	c #413934",
"&%	c #65637A",
"*%	c #041026",
"=%	c #D2B9A3",
"-%	c #DFC3AD",
";%	c #E0C5B0",
">%	c #E2C7B2",
",%	c #E2C9B5",
"'%	c #E3CEBD",
")%	c #E5D0BF",
"!%	c #EBD8C7",
"~%	c #E6D0BB",
"{%	c #E7D1BC",
"]%	c #E4CEB9",
"^%	c #E9D0BA",
"/%	c #EBD2BC",
"(%	c #EBD3BB",
"_%	c #E8CEB7",
":%	c #9E9288",
"<%	c #1A4899",
"[%	c #403732",
"}%	c #D8BDA8",
"|%	c #677296",
"1%	c #04142C",
"2%	c #D8C0AB",
"3%	c #E6CDB9",
"4%	c #E4CDBB",
"5%	c #E6CFBD",
"6%	c #E8D1BF",
"7%	c #E9D4C3",
"8%	c #E8D3C2",
"9%	c #DFCAB7",
"0%	c #E8D2BD",
"a%	c #E9D3BE",
"b%	c #9B948B",
"c%	c #0D5497",
"d%	c #413736",
"e%	c #DAC3B1",
"f%	c #657591",
"g%	c #04203E",
"h%	c #D9C3B2",
"i%	c #E5CEBC",
"j%	c #E9D2C0",
"k%	c #EDD8C7",
"l%	c #EFDAC9",
"m%	c #ECD7C6",
"n%	c #E6D1C0",
"o%	c #E0CBBA",
"p%	c #DCC7B6",
"q%	c #9F978D",
"r%	c #1B5E91",
"s%	c #40373A",
"t%	c #E4CFBE",
"u%	c #6A7C90",
"v%	c #022445",
"w%	c #DBC7B7",
"x%	c #EAD5C4",
"y%	c #EBD4C4",
"z%	c #E9D2C2",
"A%	c #E1CAB8",
"B%	c #DCC5B3",
"C%	c #D8C1AF",
"D%	c #E3CEBB",
"E%	c #E6D1BE",
"F%	c #E2D0BC",
"G%	c #E1CEBD",
"H%	c #E2CFBE",
"I%	c #E4D1C0",
"J%	c #A4927E",
"K%	c #442026",
"L%	c #483129",
"M%	c #E3D0C2",
"N%	c #7A655C",
"O%	c #240612",
"P%	c #D8C3B5",
"Q%	c #E8CCBD",
"R%	c #E7CCBC",
"S%	c #E9D1C3",
"T%	c #F0DBCA",
"U%	c #E3CCBC",
"V%	c #DDC6B4",
"W%	c #DFC6B2",
"X%	c #E8CFB9",
"Y%	c #E7CEB8",
"Z%	c #E4CBB5",
"`%	c #E1CEBF",
" &	c #E2D1C1",
".&	c #B5A196",
"+&	c #B4AAA2",
"@&	c #ABABA4",
"#&	c #AB8B88",
"$&	c #AFA39C",
"%&	c #A7918B",
"&&	c #CAA69A",
"*&	c #EBB1A0",
"=&	c #E9B29F",
"-&	c #E5CCBC",
";&	c #E5D2C3",
">&	c #D9C2B0",
",&	c #DCC2B1",
"'&	c #E0C7B3",
")&	c #E9CDB5",
"!&	c #E6CAB2",
"~&	c #E5CAB5",
"{&	c #E5CCB6",
"]&	c #E2CDB8",
"^&	c #E3D1BD",
"/&	c #E7D4C3",
"(&	c #E7D6C4",
"_&	c #E5D4C2",
":&	c #E3D2C2",
"<&	c #E4D0C3",
"[&	c #E7D4C6",
"}&	c #EAD6C9",
"|&	c #ECD9CA",
"1&	c #EDD7C9",
"2&	c #EAD4C6",
"3&	c #DFC8B6",
"4&	c #DDC7B2",
"5&	c #E1C7B0",
"  . + @ @ + # $ % % & & % * = $ % - # * ; > @ , ' ) ! ~ { ] ^ ' ",
"/ ( + + + + * * & & & & % * - # % _ : < [ } | 1 2 3 4 5 6 ] 7 8 ",
"9 0 a b c * & d & & e f f f g h i j k l m _ n o p q r ) s t u < ",
", , v w x y & & % z A A B C D E F G H I J K L M N O P = = # d Q ",
"u u % & R S T f f A U V W X Y Z `  ...+.@.#.$.%.&.J *.m m =.-.;.",
". 8 % % % _ >.,.A '.'.).!.~.{.].^./.(._.:.<.[.}.}.|.1.2.3.4.5.6.",
"* - # # 7.7.8.9.*.0.a.b.c.d.e.f.g.h.i.j.k.l.l.m.n.o.o.p.q.q.r.s.",
"& - $ t.u.n V ).0.v.w.x.y.z.A.B.C.D.E.F.G.H.I.J.K.L.M.N.O.P.P.Q.",
"- - - - A A '.R.S.T.U.V.W.X.Y.Z.`. +.+++@+#+$+%+&+I.*+=+-+L.L.Q.",
";+>+,+'+=.)+!+~+w.n.V.{+]+^+/+(+_+:+<+[+}+|+$+1+2+&+*+3+-+4+=+l.",
"5+< 6+6+7+8+9+0+a+b+c+d+e+f+g+h+i+j+k+l+m+n+o+p+q+r+s+t+-+-+4+=+",
"% % e m u+v+w+x+y+z+A+B+C+D+E+F+G+H+I+J+K+n+o+p+L+M+2+s+N+-+O+L.",
"P+Q+R+S+T+U+r.x.V+W+X+Y+Z+`+ @.@+@@@#@$@%@&@s+r+2+r+*@*@=@-@;@>@",
"% d ,@'@)@2.T.!@~@{@]@^@/@(@_@:@<@[@}@|@1@2@3@s+4@t+K.5@=@=@6@7@",
"o t.7.6+8@9@p.a+0@{@a@b@c@d@e@f@g@h@i@j@k@l@m@n@o@p@q@q@r@s@t@O.",
"& u@=.)+v@w@s.a+x@y@]@z@A@B@C@D@E@F@G@H@I@J@K@L@M@N@O@P@Q@R@S@T@",
"A =.U@8+V@W@X@Y@Y@Z@0@`@ #.#+#@###$#%#&#*#=#Q.-#w.~+!+v@v@;#K >#",
",#u+'#U+W@W@)#!#m.Y@~#Z@{#]#^#/#(#_#:#<#[#}#|#1#2#3#v@4#5#6#7#8#",
"9#0#9+a#X@b#)#X@Y@Y@Y@V+c#d#e#f#g#h#i#j#k#l#-#|#b.~+~+m#n#o#V@p#",
"q#r#s#s#t#q#u#Q.v#v#v#Q.w#x#y#z#A#B#C#D#E#F#G#G#H#I#J#K#L#M#1#q#",
"0@0@N#b+Z@O#L.Q.P#U.!@Q#R#S#T#U#V#W#X#Y#Z#`# $ $H#.$+$@$#$$$b+%$",
"&$*$*$=$-$~#N#~@M@Q#;$;$>$,$'$)$!$~${$]$^$/$H#($@$_$:$}#=#*$<$[$",
"}$|$1$2$a@3$4$5$6$_$+$+$7$8$9$0$a$b$c$d$e$f$($g$_$=#=$h$a@i$j$k$",
"l$m$n$}$Z+o$&$=#p$6$M@n.q$r$s$t$J#u$v$w$;$x$g$y$p$z$o$A$^@B$C$D$",
"E$F$G$H$G$A$i$I$4${+N#$$J$K$L$M$!@N$O$P$Q$R$S$T$a@A$U$V$W$V$X$Y$",
"Z$`$ %H$H$H$.%+%@%%+A+z+~##%$%%%6$&%*%=%-%;%>%,%.%U$V$W$'%)%Y$!%",
"m$l$ %H$W$V$~%{%]%^%/%(%_%:%<%[%}%|%1%2%1+3%3%4%5%6%7%7%8%X$X$8%",
"l$9%G$H$W$V${%0%]%~%0%a%~%b%c%d%e%f%g%h%i%5%5%5%5%j%k%l%m%n%o%p%",
"]%]%]%]%]%U$W$V$W$W$W$V$V$q%r%s%t%u%v%w%)%n%X$X$x%x%y%z%5%A%B%C%",
"~%~%]%.%.%.%H$D%E%F%G%H%I%J%K%L%M%N%O%P%Q%R%S%7%T%x%U%V%n$n$V%W%",
"X%Y%B+Z%^@^@H$H$I%H%`% & &.&+&@&#&$&%&&&*&=&-&;&x%t%V%>&,&W%'&>%",
")&J.!&I.d+~&{&j$U$]&H$^&/&(&_&:&<&[&}&|&1&2&)%U%3&4&W%]@~&%+5&4$"};
