/* XPM */
static char * player_xpm[] = {
"32 32 362 2",
"  	c #D7AF8C",
". 	c #D9B18E",
"+ 	c #DCB491",
"@ 	c #DFB794",
"# 	c #8D6E63",
"$ 	c #592B2B",
"% 	c #DBB493",
"& 	c #3E2723",
"* 	c #D9B291",
"= 	c #D8B190",
"- 	c #DAB392",
"; 	c #DEB894",
"> 	c #DFB995",
", 	c #DDB592",
"' 	c #D5AD89",
") 	c #D2AA86",
"! 	c #D1A781",
"~ 	c #D3A983",
"{ 	c #D7AD87",
"] 	c #D9AF89",
"^ 	c #DAAE89",
"/ 	c #DBB390",
"( 	c #A1887F",
"_ 	c #F50057",
": 	c #DFB897",
"< 	c #DBB591",
"[ 	c #D3AC8B",
"} 	c #CEA683",
"| 	c #D4AC89",
"1 	c #D1A985",
"2 	c #D0A884",
"3 	c #D2A882",
"4 	c #D5AA87",
"5 	c #DBB08D",
"6 	c #DAB28F",
"7 	c #DEB693",
"8 	c #D9B593",
"9 	c #D4B090",
"0 	c #D2AB8A",
"a 	c #D0A988",
"b 	c #D0AA86",
"c 	c #D1AB87",
"d 	c #D3AB88",
"e 	c #D6AE8A",
"f 	c #DEB796",
"g 	c #000000",
"h 	c #D3B092",
"i 	c #D5B191",
"j 	c #CBA787",
"k 	c #CFAB89",
"l 	c #D3AF8D",
"m 	c #D7B08F",
"n 	c #DDB695",
"o 	c #DFBB9B",
"p 	c #D8B494",
"q 	c #EAC086",
"r 	c #C68642",
"s 	c #E0AC69",
"t 	c #C9A78B",
"u 	c #CAA789",
"v 	c #CBA88A",
"w 	c #D1AE90",
"x 	c #D8B597",
"y 	c #DCB898",
"z 	c #DBB797",
"A 	c #DDB999",
"B 	c #DEBB9D",
"C 	c #D7B393",
"D 	c #F1C27D",
"E 	c #FFFFFF",
"F 	c #D2B397",
"G 	c #D0B195",
"H 	c #D7B599",
"I 	c #DCBA9E",
"J 	c #E0BEA2",
"K 	c #E1BEA2",
"L 	c #E0BDA1",
"M 	c #DFBCA0",
"N 	c #DDBB9F",
"O 	c #D6B292",
"P 	c #D7B295",
"Q 	c #E5C7AF",
"R 	c #E5C7AD",
"S 	c #DCBEA4",
"T 	c #DDBDA4",
"U 	c #DFC0A4",
"V 	c #E3C1A6",
"W 	c #E2C0A5",
"X 	c #DEBFA3",
"Y 	c #DCB594",
"Z 	c #D6AF8E",
"` 	c #D4AD8C",
" .	c #D2AE8E",
"..	c #FFAD60",
"+.	c #E3C7B1",
"@.	c #E5C9B3",
"#.	c #E8CCB4",
"$.	c #E6C7B2",
"%.	c #E1C3AB",
"&.	c #DDBFA7",
"*.	c #DEBEA5",
"=.	c #E1C1AA",
"-.	c #E3C3AA",
";.	c #E0C2A8",
">.	c #E0C5B0",
",.	c #E3C8B3",
"'.	c #E5CBB4",
").	c #E5C9B4",
"!.	c #E4C6AE",
"~.	c #E2C3AE",
"{.	c #E6BF9E",
"].	c #E4BD9C",
"^.	c #E1BA99",
"/.	c #DCB896",
"(.	c #BDBDBD",
"_.	c #8D5524",
":.	c #E1C6B3",
"<.	c #E6CBB6",
"[.	c #E6CAB5",
"}.	c #E1C5AF",
"|.	c #E3C4AF",
"1.	c #E0B998",
"2.	c #DAB696",
"3.	c #DDB89B",
"4.	c #E1C7B6",
"5.	c #E2C7B4",
"6.	c #E5CAB7",
"7.	c #E7CCB9",
"8.	c #E9CDB8",
"9.	c #E7CBB6",
"0.	c #E4C8B3",
"a.	c #E1C5B0",
"b.	c #D9B595",
"c.	c #DFBC9E",
"d.	c #E2C8B7",
"e.	c #EACEB9",
"f.	c #E8CCB7",
"g.	c #E4C5B0",
"h.	c #E1C2AD",
"i.	c #E2BB9A",
"j.	c #E3BC9B",
"k.	c #E2BE9E",
"l.	c #E3BF9F",
"m.	c #E3C0A2",
"n.	c #E2C1A2",
"o.	c #757575",
"p.	c #546D8E",
"q.	c #BF1F97",
"r.	c #BF79E8",
"s.	c #EACBB6",
"t.	c #E9CAB5",
"u.	c #E7C8B3",
"v.	c #E6C6B1",
"w.	c #E4C4AD",
"x.	c #DEBA9A",
"y.	c #E1BD9D",
"z.	c #E1BEA0",
"A.	c #F700B9",
"B.	c #6F3198",
"C.	c #DFC4B1",
"D.	c #E2C6B1",
"E.	c #DFC3AE",
"F.	c #E8C9B4",
"G.	c #E9C9B4",
"H.	c #E8C8B1",
"I.	c #DEC1AF",
"J.	c #DDC0AE",
"K.	c #E1C2AE",
"L.	c #E2C3AF",
"M.	c #DDBEA9",
"N.	c #DCBDA8",
"O.	c #DDBDA8",
"P.	c #DDBDA6",
"Q.	c #DEBEA7",
"R.	c #E0C0A9",
"S.	c #DAB694",
"T.	c #DAB799",
"U.	c #DCC0AA",
"V.	c #DFC0AB",
"W.	c #E0C2AA",
"X.	c #DCBEA6",
"Y.	c #D9BBA3",
"Z.	c #D4B49D",
"`.	c #D0B097",
" +	c #CEAE95",
".+	c #D1AF94",
"++	c #D4B299",
"@+	c #D6B499",
"#+	c #DFBA9D",
"$+	c #E0BD9F",
"%+	c #DEC3A8",
"&+	c #DFC1A5",
"*+	c #DCBDA1",
"=+	c #DABB9E",
"-+	c #DBB99D",
";+	c #DBBA9B",
">+	c #D8B595",
",+	c #D2AF91",
"'+	c #CCA98B",
")+	c #DCB99B",
"!+	c #E2BFA1",
"~+	c #546E7A",
"{+	c #FFC20E",
"]+	c #DFC2A4",
"^+	c #E0C3A5",
"/+	c #DCBDA0",
"(+	c #DABB9C",
"_+	c #DCBB9A",
":+	c #DDBC9B",
"<+	c #DDBB98",
"[+	c #D9B696",
"}+	c #D5B292",
"|+	c #E2C0A4",
"1+	c #E4C2A6",
"2+	c #E5C3A7",
"3+	c #E5AA7A",
"4+	c #DBBC9F",
"5+	c #DBBC9D",
"6+	c #DDBE9F",
"7+	c #E0BF9E",
"8+	c #E0BFA0",
"9+	c #DEBD9E",
"0+	c #E1C3A7",
"a+	c #E2C4A8",
"b+	c #FFCD94",
"c+	c #DDBFA3",
"d+	c #D9BB9F",
"e+	c #D8BB9D",
"f+	c #D9BA9E",
"g+	c #D9BC9E",
"h+	c #DCBFA1",
"i+	c #DEC1A3",
"j+	c #DEC2AA",
"k+	c #DABCA0",
"l+	c #D7BC9F",
"m+	c #D9BBA1",
"n+	c #D7BCA1",
"o+	c #D9BEA3",
"p+	c #DBC0A5",
"q+	c #DFC4A9",
"r+	c #E0C6AD",
"s+	c #DCC3AD",
"t+	c #DBC3AB",
"u+	c #448AFF",
"v+	c #D6BBA0",
"w+	c #D8BCA4",
"x+	c #DABEA6",
"y+	c #D9BFA6",
"z+	c #DAC0A9",
"A+	c #DFC7AF",
"B+	c #E3CAB4",
"C+	c #DCC6B1",
"D+	c #DBC5B0",
"E+	c #DAC4AF",
"F+	c #D6BAA2",
"G+	c #DDC3AC",
"H+	c #DEC6AE",
"I+	c #DFC6B0",
"J+	c #DFC9B2",
"K+	c #E4CEB7",
"L+	c #E7D2BD",
"M+	c #DEC9B6",
"N+	c #DCC7B4",
"O+	c #DBC4B2",
"P+	c #D5B9A1",
"Q+	c #D6BCA5",
"R+	c #D8BEA7",
"S+	c #DBC2AC",
"T+	c #E0C7B1",
"U+	c #E1CBB6",
"V+	c #E2CCB7",
"W+	c #E4CFBA",
"X+	c #E9D4C1",
"Y+	c #EBD9C5",
"Z+	c #DDCAB9",
"`+	c #DECCB8",
" @	c #E1CCB9",
".@	c #E2CDBA",
"+@	c #E0C8B0",
"@@	c #D8BDA2",
"#@	c #DABCA2",
"$@	c #D8BAA0",
"%@	c #D7BBA3",
"&@	c #DABEA8",
"*@	c #DDC1AB",
"=@	c #DEC3AE",
"-@	c #E5CFBA",
";@	c #E5D0BD",
">@	c #E4CFBC",
",@	c #E7D2C1",
"'@	c #E8D5C4",
")@	c #DBC8B7",
"!@	c #DCC9B8",
"~@	c #E0CBB8",
"{@	c #E3CDB8",
"]@	c #E2CCB5",
"^@	c #E4CAB1",
"/@	c #E1C5AD",
"(@	c #DBBFA9",
"_@	c #DCC2AB",
":@	c #DFC3AD",
"<@	c #E2C7B2",
"[@	c #E2C9B5",
"}@	c #E3CEBD",
"|@	c #E5D0BF",
"1@	c #EBD8C7",
"2@	c #E6D0BB",
"3@	c #E7D1BC",
"4@	c #E0E0E0",
"5@	c #B4B4B4",
"6@	c #E8CEB7",
"7@	c #E2C8B1",
"8@	c #DFC4AF",
"9@	c #E2C9B3",
"0@	c #E6CDB9",
"a@	c #E4CDBB",
"b@	c #E6CFBD",
"c@	c #E8D1BF",
"d@	c #E9D4C3",
"e@	c #E8D3C2",
"f@	c #DFCAB7",
"g@	c #1565C0",
"h@	c #E9D2C0",
"i@	c #EDD8C7",
"j@	c #EFDAC9",
"k@	c #ECD7C6",
"l@	c #E6D1C0",
"m@	c #E0CBBA",
"n@	c #DCC7B6",
"o@	c #E4CEB9",
"p@	c #EAD5C4",
"q@	c #EBD4C4",
"r@	c #E9D2C2",
"s@	c #E1CAB8",
"t@	c #DCC5B3",
"u@	c #D8C1AF",
"v@	c #E6D5C3",
"w@	c #EEEEEE",
"x@	c #E9D3C5",
"y@	c #F0DBCA",
"z@	c #E3CCBC",
"A@	c #DDC6B4",
"B@	c #DFC6B2",
"C@	c #E8CFB9",
"D@	c #E7CEB8",
"E@	c #E6CDB7",
"F@	c #E4CBB5",
"G@	c #E5D2C3",
"H@	c #E4CFBE",
"I@	c #D9C2B0",
"J@	c #DCC2B1",
"K@	c #E0C7B3",
"L@	c #E9CDB5",
"M@	c #E6CAB2",
"N@	c #E4CAB3",
"O@	c #E5CAB5",
"P@	c #E5CCB6",
"Q@	c #DFC8B6",
"R@	c #DDC7B2",
"S@	c #E1C8B2",
"T@	c #E1C7B0",
"U@	c #DEC4AD",
"  . + @ @ # $ $ % % & $ $ $ $ $ $ * = - ; > @ , ' ) ! ~ { ] ^ ' ",
"/ / + + $ ( # _ _ ( $ & # # # # # # & & : < [ } | 1 2 3 4 ] 5 6 ",
"7 , / & ( # ( _ ( ( # & # # & & # ( # # # 8 9 0 a b c ) d e / f ",
", , & ( # # & # # $ & ( ( & g g g & # # # # h i j k l m m = n o ",
"/ / ( # $ & p & $ & & # q r r r s r & $ # & t u v w x y y z A B ",
". 6 & & $ 8 C g & & # D r E g E r E g $ # & F G G H I J K L M N ",
"- * = = O O P g & q q D D E g E D E g & & $ Q R S T T U V V W X ",
"Y * Z `  .9 g q r r q D D ..E ..D ....r & +.@.#.$.%.&.*.=.-.-.;.",
"* * * * C g g q r ..q q q q q q ........r >.,.'.).@.+.!.~.%.%.;.",
"{.].^./.g (.(.g g q D D q q q r r r _._._.:.,.<.[.).+.}.~.|.!.Q ",
"1.f 2.2.3.g (.(.(.g g D D q q q q r g 4.:.5.6.7.8.9.0.a.~.~.|.!.",
"% % b.y c.g (.(.(.(.(.g g r r r r g d.4.:.5.6.7.e.f.[.0.g.~.h.%.",
"i.j.k.l.m.n.g g g g o.o.o.g p.o.q.r.g 5.:.:.0.9.[.9.s.s.t.u.v.w.",
"% n x.y.z.g o.o.o.g o.o.o.o.A.B.r.q.o.g C.C.D.0.E.a.$.F.t.t.G.H.",
"0 ` O 2.g o.o.o.g o.o.o.o.q.q.r.A.o.o.g I.J.K.L.M.N.O.O.P.Q.R.=.",
"Y S.z T.g o.o.o.g o.B.B.q.r.r.A.o.g o.o.g U.V.W.X.Y.Z.`. +.+++@+",
"C z #+$+g o.o.o.g A.r.A.r.A.A.o.o.g o.o.g %+;.&+*+=+-+;+;+>+,+'+",
")+c.!+n.g ~+~+g A.{+r.{+q.o.(.o.o.g ~+~+~+g ]+^+/+(+;+_+:+<+[+}+",
"|+1+2+g 3+r r g A.r.{+A.o.o.(.o.o.g r r s s g ]+4+=+=+5+6+7+8+9+",
"0+a+g 3+3+b+b+r B.r.r.A.o.o.~+o.o.g r q q s g c+d+e+f+g+h+i+^+0+",
"j+j+g 3+b+b+g 3+B.B.A.A.~+~+~+~+~+~+s g q r g k+d+l+m+n+o+p+q+r+",
"s+t+g r b+b+b+b+B.A.u+u+u+u+u+u+u+(.b+q q r g v+n+w+x+y+z+t+A+B+",
"C+D+E+g r 3+3+g u+u+u+g g g u+u+u+(.s s s g v+F+w+z+G+H+I+J+K+L+",
"M+N+O+C+g g g g ~+~+~+g S g u+~+~+~+g g g P+F+Q+R+S+T+U+V+W+X+Y+",
"Z+`+ @.@ @U+J++@g g g p+@@#@g g g #@$@F+%@&@*@=@I+U+-@;@>@;@,@'@",
")@!@~@.@.@.@{@]@s D D ^@/@j+s D D x+(@_@:@>.<@[@{@-@;@>@}@|@'@1@",
"N+M+~@.@>@;@2@3@4@o.o.5@6@7@4@o.o.5@8@9@<.0@0@a@b@c@d@d@e@,@,@e@",
"M+f@ @.@>@;@3@g g@(.o.(.2@V+g@g@o.o.(.(.o.b@b@b@b@h@i@j@k@l@m@n@",
"o@o@o@o@o@-@>@g 4@(.E E o.>@4@4@o.(.(.(.E o.,@,@p@p@q@r@b@s@t@u@",
"2@2@o@{@{@{@.@g 4@(.(.(.o.v@w@w@o.o.(.(.(.o.x@d@y@p@z@A@O+O+A@B@",
"C@D@E@F@V+V+.@g 5@E E E E g 5@5@5@5@E E E E g G@p@H@A@I@J@B@K@<@",
"L@#.M@@.N@O@P@g g g g g g g g g g g g g g g g z@Q@R@B@S@O@'.T@U@"};
