/* XPM */
static char * Wall_xpm[] = {
"32 32 984 2",
"  	c #8D6346",
". 	c #BA8460",
"+ 	c #AF805F",
"@ 	c #816049",
"# 	c #684D3A",
"$ 	c #816047",
"% 	c #A77A5A",
"& 	c #C18C66",
"* 	c #C08A67",
"= 	c #AF7F60",
"- 	c #976F57",
"; 	c #896651",
"> 	c #6F5241",
", 	c #3F2C22",
"' 	c #4E3829",
") 	c #6B4E39",
"! 	c #5A412E",
"~ 	c #473022",
"{ 	c #7F5840",
"] 	c #AC7A57",
"^ 	c #A97755",
"/ 	c #7F593F",
"( 	c #684831",
"_ 	c #835C3F",
": 	c #B07D58",
"< 	c #C18B66",
"[ 	c #C08A66",
"} 	c #AE7E59",
"| 	c #745338",
"1 	c #755137",
"2 	c #9C6D4B",
"3 	c #64462F",
"4 	c #8A6246",
"5 	c #B1805E",
"6 	c #A77B5C",
"7 	c #8D6950",
"8 	c #8E694F",
"9 	c #A97E5D",
"0 	c #BC8964",
"a 	c #C48F68",
"b 	c #B1815F",
"c 	c #815E45",
"d 	c #553D2E",
"e 	c #473328",
"f 	c #39291F",
"g 	c #1D130D",
"h 	c #3B281B",
"i 	c #674731",
"j 	c #6C4A32",
"k 	c #5A3C29",
"l 	c #7C543B",
"m 	c #A67350",
"n 	c #9E6D4C",
"o 	c #694831",
"p 	c #3A2619",
"q 	c #61442D",
"r 	c #A27451",
"s 	c #BA8661",
"t 	c #B78460",
"u 	c #A47753",
"v 	c #6D4E35",
"w 	c #815B3E",
"x 	c #9B6D4C",
"y 	c #62442F",
"z 	c #976A4E",
"A 	c #986D50",
"B 	c #6E503B",
"C 	c #503A2B",
"D 	c #543D2C",
"E 	c #775840",
"F 	c #A37958",
"G 	c #BC8C66",
"H 	c #AF815F",
"I 	c #78573F",
"J 	c #3E2B1D",
"K 	c #2F1E14",
"L 	c #312015",
"M 	c #332116",
"N 	c #573A27",
"O 	c #8A5E40",
"P 	c #9E6A49",
"Q 	c #946344",
"R 	c #9B6847",
"S 	c #B17A53",
"T 	c #A77651",
"U 	c #745138",
"V 	c #2F1F14",
"W 	c #442E1D",
"X 	c #8A6343",
"Y 	c #AB7B57",
"Z 	c #A77955",
"` 	c #846041",
" .	c #583E29",
"..	c #7B573C",
"+.	c #8A6244",
"@.	c #705036",
"#.	c #996F53",
"$.	c #664936",
"%.	c #352419",
"&.	c #21160E",
"*.	c #2B1D13",
"=.	c #3F2D1F",
"-.	c #6B4F37",
";.	c #A07656",
">.	c #B88865",
",.	c #A27556",
"'.	c #77533B",
").	c #674630",
"!.	c #6E4B36",
"~.	c #7B553C",
"{.	c #956748",
"].	c #AC7651",
"^.	c #A9724D",
"/.	c #9D6846",
"(.	c #A66F4B",
"_.	c #B87F57",
":.	c #B78159",
"<.	c #926848",
"[.	c #543B28",
"}.	c #2E1F13",
"|.	c #64452E",
"1.	c #9C6C4B",
"2.	c #956949",
"3.	c #5F432D",
"4.	c #342416",
"5.	c #523926",
"6.	c #79563B",
"7.	c #9F724E",
"8.	c #7D5943",
"9.	c #442F22",
"0.	c #2F2014",
"a.	c #432E20",
"b.	c #563C2C",
"c.	c #523928",
"d.	c #493324",
"e.	c #846147",
"f.	c #B98866",
"g.	c #BC8966",
"h.	c #A47353",
"i.	c #936548",
"j.	c #A06F51",
"k.	c #B27E5B",
"l.	c #B8825C",
"m.	c #A87551",
"n.	c #81573A",
"o.	c #5E3D28",
"p.	c #775036",
"q.	c #A67450",
"r.	c #BE885F",
"s.	c #B17F5B",
"t.	c #875F44",
"u.	c #553A29",
"v.	c #5E3E2C",
"w.	c #956347",
"x.	c #875B40",
"y.	c #523826",
"z.	c #3D2A1C",
"A.	c #644731",
"B.	c #996E4F",
"C.	c #B2805C",
"D.	c #38271A",
"E.	c #59412C",
"F.	c #725139",
"G.	c #825D45",
"H.	c #7C573F",
"I.	c #4E3626",
"J.	c #795742",
"K.	c #B68567",
"L.	c #BC8A69",
"M.	c #6B4A34",
"N.	c #78543E",
"O.	c #996C50",
"P.	c #9E7051",
"Q.	c #815A3E",
"R.	c #4A3120",
"S.	c #150A05",
"T.	c #4F3421",
"U.	c #956747",
"V.	c #BA845D",
"W.	c #BB8560",
"X.	c #A87756",
"Y.	c #8D6249",
"Z.	c #845B44",
"`.	c #9D6C50",
" +	c #92664A",
".+	c #78533C",
"++	c #75533E",
"@+	c #976B4F",
"#+	c #AF7E5D",
"$+	c #A57758",
"%+	c #312016",
"&+	c #473322",
"*+	c #74563B",
"=+	c #684933",
"-+	c #5E412F",
";+	c #5D402E",
">+	c #3E2A1E",
",+	c #6F4F3D",
"'+	c #AF7F62",
")+	c #B88565",
"!+	c #8B644A",
"~+	c #473223",
"{+	c #39261C",
"]+	c #513828",
"^+	c #553B29",
"/+	c #412C1D",
"(+	c #1D1109",
"_+	c #000000",
":+	c #3E291A",
"<+	c #845B40",
"[+	c #A97757",
"}+	c #AA7859",
"|+	c #A17154",
"1+	c #A67556",
"2+	c #AD7B5B",
"3+	c #AE7C5F",
"4+	c #A67558",
"5+	c #9D6F53",
"6+	c #926852",
"7+	c #9C7058",
"8+	c #AA7D5D",
"9+	c #926B50",
"0+	c #5F3E2E",
"a+	c #4E3624",
"b+	c #6F5034",
"c+	c #5A3F29",
"d+	c #352317",
"e+	c #332117",
"f+	c #3F2B1F",
"g+	c #72503D",
"h+	c #AC7B5D",
"i+	c #C08B67",
"j+	c #A67756",
"k+	c #75533C",
"l+	c #533A2A",
"m+	c #452F21",
"n+	c #422D20",
"o+	c #3B291C",
"p+	c #271910",
"q+	c #140B05",
"r+	c #422B1D",
"s+	c #7E573F",
"t+	c #96694F",
"u+	c #825A45",
"v+	c #724F39",
"w+	c #966949",
"x+	c #B2805B",
"y+	c #AC7C5E",
"z+	c #91684F",
"A+	c #805B44",
"B+	c #6B4C3B",
"C+	c #6D4F3D",
"D+	c #89654A",
"E+	c #89674C",
"F+	c #885C45",
"G+	c #553827",
"H+	c #523924",
"I+	c #5B3F2A",
"J+	c #3E291B",
"K+	c #553A2A",
"L+	c #7F5A44",
"M+	c #9F7258",
"N+	c #BA8667",
"O+	c #C48E6B",
"P+	c #BD8965",
"Q+	c #AD7D5C",
"R+	c #986E51",
"S+	c #865F46",
"T+	c #815C43",
"U+	c #7D5941",
"V+	c #6B4B35",
"W+	c #5F402C",
"X+	c #6F4B35",
"Y+	c #8E6246",
"Z+	c #8D6247",
"`+	c #614230",
" @	c #3B2719",
".@	c #6A4930",
"+@	c #9B6D4D",
"@@	c #986C4D",
"#@	c #694935",
"$@	c #443022",
"%@	c #2D1F15",
"&@	c #2F2117",
"*@	c #4F3928",
"=@	c #664D38",
"-@	c #865C43",
";@	c #6B4530",
">@	c #482D1E",
",@	c #432C1C",
"'@	c #4C3323",
")@	c #895F46",
"!@	c #B68262",
"~@	c #C18A6A",
"{@	c #B98666",
"]@	c #B18061",
"^@	c #AE7F5E",
"/@	c #B07F5E",
"(@	c #AB7B5A",
"_@	c #A77857",
":@	c #A27455",
"<@	c #9B6D4F",
"[@	c #916446",
"}@	c #8F6345",
"|@	c #4F3727",
"1@	c #251911",
"2@	c #4B3322",
"3@	c #8B6043",
"4@	c #62442E",
"5@	c #25170E",
"6@	c #060302",
"7@	c #170F09",
"8@	c #322419",
"9@	c #6B4833",
"0@	c #8B5A3F",
"a@	c #82543A",
"b@	c #6D4731",
"c@	c #764F37",
"d@	c #A57253",
"e@	c #BE8866",
"f@	c #AF7E5F",
"g@	c #8E654C",
"h@	c #775540",
"i@	c #71513C",
"j@	c #815C44",
"k@	c #9D7153",
"l@	c #AE7C5A",
"m@	c #A97856",
"n@	c #94694B",
"o@	c #825A40",
"p@	c #755038",
"q@	c #6B4A35",
"r@	c #664736",
"s@	c #4E372B",
"t@	c #35251B",
"u@	c #5D402C",
"v@	c #986A4A",
"w@	c #A87654",
"x@	c #7F5940",
"y@	c #442E20",
"z@	c #190F08",
"A@	c #050201",
"B@	c #020101",
"C@	c #090504",
"D@	c #724D38",
"E@	c #AB7354",
"F@	c #C2825E",
"G@	c #B77C5A",
"H@	c #B07756",
"I@	c #B97F5D",
"J@	c #B27D5E",
"K@	c #825D46",
"L@	c #4D3527",
"M@	c #302017",
"N@	c #261A11",
"O@	c #432F21",
"P@	c #9F7052",
"Q@	c #A17151",
"R@	c #7C563C",
"S@	c #442F20",
"T@	c #452F22",
"U@	c #593E31",
"V@	c #634638",
"W@	c #4D362C",
"X@	c #4B3324",
"Y@	c #825A3E",
"Z@	c #AA7652",
"`@	c #AE7956",
" #	c #986B4E",
".#	c #77543A",
"+#	c #533A26",
"@#	c #271A0F",
"##	c #130B05",
"$#	c #24170E",
"%#	c #94684E",
"&#	c #BA8261",
"*#	c #DA9971",
"=#	c #D8976F",
"-#	c #C68863",
";#	c #B87F5D",
">#	c #AB785A",
",#	c #7A5642",
"'#	c #473225",
")#	c #322117",
"!#	c #1C110B",
"~#	c #1A0F0A",
"{#	c #513728",
"]#	c #865D45",
"^#	c #98694E",
"/#	c #805841",
"(#	c #553929",
"_#	c #312017",
":#	c #4B3429",
"<#	c #4F372C",
"[#	c #442F23",
"}#	c #996A4A",
"|#	c #A2704F",
"1#	c #916548",
"2#	c #8D6448",
"3#	c #956A4B",
"4#	c #855E42",
"5#	c #513926",
"6#	c #483221",
"7#	c #63452E",
"8#	c #936950",
"9#	c #9F7357",
"0#	c #C38F6C",
"a#	c #C6906B",
"b#	c #A77555",
"c#	c #94664B",
"d#	c #A27255",
"e#	c #9B6F56",
"f#	c #855F47",
"g#	c #724F3A",
"h#	c #4E3526",
"i#	c #1B100A",
"j#	c #352217",
"k#	c #714E3A",
"l#	c #956750",
"m#	c #976952",
"n#	c #875D47",
"o#	c #6D4936",
"p#	c #4F3327",
"q#	c #493025",
"r#	c #4D3327",
"s#	c #624231",
"t#	c #8A5F45",
"u#	c #98694B",
"v#	c #7C553C",
"w#	c #573C29",
"x#	c #654632",
"y#	c #94694E",
"z#	c #9B6E52",
"A#	c #7E5A41",
"B#	c #825C41",
"C#	c #94694A",
"D#	c #674A39",
"E#	c #644A37",
"F#	c #8B684F",
"G#	c #906A51",
"H#	c #654734",
"I#	c #593C2A",
"J#	c #896148",
"K#	c #AF7F61",
"L#	c #AD7C5E",
"M#	c #644534",
"N#	c #251710",
"O#	c #2A1B12",
"P#	c #6A4A38",
"Q#	c #976A53",
"R#	c #A6755C",
"S#	c #A27157",
"T#	c #91634C",
"U#	c #7E5543",
"V#	c #795040",
"W#	c #7E5342",
"X#	c #8B5E49",
"Y#	c #94654E",
"Z#	c #7E5740",
"`#	c #4A3222",
" $	c #26170E",
".$	c #573B2C",
"+$	c #926751",
"@$	c #A3755B",
"#$	c #A07357",
"$$	c #A57757",
"%$	c #A97957",
"&$	c #65483B",
"*$	c #483328",
"=$	c #563E30",
"-$	c #513B2E",
";$	c #251812",
">$	c #2B1C13",
",$	c #73523E",
"'$	c #AE7F61",
")$	c #8B624A",
"!$	c #523729",
"~$	c #1C110A",
"{$	c #332218",
"]$	c #6D4B3A",
"^$	c #91664F",
"/$	c #966A52",
"($	c #8E624D",
"_$	c #885C48",
":$	c #895C4A",
"<$	c #93624F",
"[$	c #9B6754",
"}$	c #976653",
"|$	c #835847",
"1$	c #644233",
"2$	c #4C3222",
"3$	c #3F2A1C",
"4$	c #6D4D39",
"5$	c #9F7157",
"6$	c #AB795F",
"7$	c #AF7C5F",
"8$	c #B07E5F",
"9$	c #AF7E5C",
"0$	c #936957",
"a$	c #6B4A3E",
"b$	c #4D342A",
"c$	c #291B16",
"d$	c #070404",
"e$	c #1F130D",
"f$	c #634735",
"g$	c #9F735A",
"h$	c #A1745C",
"i$	c #714F3D",
"j$	c #412B20",
"k$	c #654634",
"l$	c #855D46",
"m$	c #895F48",
"n$	c #6D4B39",
"o$	c #54382B",
"p$	c #53362B",
"q$	c #674437",
"r$	c #885B4B",
"s$	c #9C6856",
"t$	c #8E5E4F",
"u$	c #6C473A",
"v$	c #714A35",
"w$	c #7C5238",
"x$	c #60402B",
"y$	c #76533D",
"z$	c #A77659",
"A$	c #AA775A",
"B$	c #A47455",
"C$	c #A37557",
"D$	c #B27F5D",
"E$	c #9D705D",
"F$	c #745043",
"G$	c #432C23",
"H$	c #170D09",
"I$	c #090402",
"J$	c #1A1009",
"K$	c #87604B",
"L$	c #A17259",
"M$	c #845C47",
"N$	c #795640",
"O$	c #92674E",
"P$	c #A17155",
"Q$	c #92654B",
"R$	c #281912",
"S$	c #100705",
"T$	c #37231C",
"U$	c #724C3E",
"V$	c #956551",
"W$	c #855A47",
"X$	c #604030",
"Y$	c #7B5137",
"Z$	c #895B3E",
"`$	c #67442F",
" %	c #74523B",
".%	c #9B6F51",
"+%	c #8F6549",
"@%	c #79553B",
"#%	c #845F4D",
"$%	c #573C31",
"%%	c #221510",
"&%	c #110905",
"*%	c #372419",
"=%	c #553A2B",
"-%	c #503728",
";%	c #815B45",
">%	c #A67559",
",%	c #92664D",
"'%	c #7C5843",
")%	c #93674D",
"!%	c #9D6D51",
"~%	c #8F6349",
"{%	c #6B4938",
"]%	c #3E281F",
"^%	c #120805",
"/%	c #22140E",
"(%	c #644333",
"_%	c #92634D",
":%	c #8D6049",
"<%	c #664431",
"[%	c #63412B",
"}%	c #65422D",
"|%	c #5A3D2A",
"1%	c #7B593E",
"2%	c #825E42",
"3%	c #5E422E",
"4%	c #3B291A",
"5%	c #4C3524",
"6%	c #86604C",
"7%	c #573D32",
"8%	c #2A1D17",
"9%	c #37271D",
"0%	c #6F4F3C",
"a%	c #9A6E54",
"b%	c #93684F",
"c%	c #9C6F54",
"d%	c #9C6F53",
"e%	c #73503B",
"f%	c #543B2B",
"g%	c #6B4A36",
"h%	c #74503A",
"i%	c #664633",
"j%	c #5C3F30",
"k%	c #513629",
"l%	c #331F17",
"m%	c #28170E",
"n%	c #603F2E",
"o%	c #96644B",
"p%	c #A66F51",
"q%	c #8B5D42",
"r%	c #60412D",
"s%	c #4A3224",
"t%	c #624633",
"u%	c #886346",
"v%	c #735439",
"w%	c #160E06",
"x%	c #3C2819",
"y%	c #7B573B",
"z%	c #A5765D",
"A%	c #886453",
"B%	c #6A5044",
"C%	c #6C5242",
"D%	c #8D6952",
"E%	c #BB8969",
"F%	c #C48C6C",
"G%	c #B58263",
"H%	c #865F48",
"I%	c #402C1F",
"J%	c #170E08",
"K%	c #432D20",
"L%	c #493123",
"M%	c #38251A",
"N%	c #53372B",
"O%	c #6E4A39",
"P%	c #634132",
"Q%	c #43291E",
"R%	c #5F3D29",
"S%	c #9A6546",
"T%	c #B97B55",
"U%	c #B27854",
"V%	c #8D6043",
"W%	c #674732",
"X%	c #6B4C39",
"Y%	c #815D43",
"Z%	c #6E4E35",
"`%	c #44301E",
" &	c #332214",
".&	c #573D27",
"+&	c #966A49",
"@&	c #A2745C",
"#&	c #A27A66",
"$&	c #997463",
"%&	c #896957",
"&&	c #7E5F4B",
"*&	c #A57A5E",
"=&	c #C28C6C",
"-&	c #B58163",
";&	c #6E4E3B",
">&	c #2B1C14",
",&	c #372418",
"'&	c #473021",
")&	c #4C3425",
"!&	c #322018",
"~&	c #583B2E",
"{&	c #8A5E4A",
"]&	c #8C5E4A",
"^&	c #5E3D2F",
"/&	c #523322",
"(&	c #915E40",
"_&	c #B67853",
":&	c #B37954",
"<&	c #966748",
"[&	c #684731",
"}&	c #4C3527",
"|&	c #523A2A",
"1&	c #4F3825",
"2&	c #593E27",
"3&	c #6E4C32",
"4&	c #875F41",
"5&	c #A77652",
"6&	c #705140",
"7&	c #916D5A",
"8&	c #9A7560",
"9&	c #775A49",
"0&	c #4D392C",
"a&	c #694D3B",
"b&	c #9C7157",
"c&	c #A87A5E",
"d&	c #694A39",
"e&	c #3A271C",
"f&	c #805A3E",
"g&	c #7D583E",
"h&	c #674833",
"i&	c #342318",
"j&	c #4F3529",
"k&	c #94674F",
"l&	c #A47256",
"m&	c #764F3B",
"n&	c #543524",
"o&	c #8B5C40",
"p&	c #A16B4B",
"q&	c #885B3F",
"r&	c #63422D",
"s&	c #3E281A",
"t&	c #1D110A",
"u&	c #160D06",
"v&	c #2C1D10",
"w&	c #62442B",
"x&	c #976A47",
"y&	c #AA7854",
"z&	c #A3734F",
"A&	c #3A291F",
"B&	c #694D3E",
"C&	c #7C5C49",
"D&	c #4C372B",
"E&	c #1F150F",
"F&	c #443125",
"G&	c #89644E",
"H&	c #AA7C61",
"I&	c #7F5C48",
"J&	c #714E35",
"K&	c #916645",
"L&	c #865E40",
"M&	c #5C3F2C",
"N&	c #261710",
"O&	c #9F6E51",
"P&	c #B47B5B",
"Q&	c #865940",
"R&	c #603F2C",
"S&	c #8E5F43",
"T&	c #8F6043",
"U&	c #5D3C29",
"V&	c #311E13",
"W&	c #352014",
"X&	c #21120A",
"Y&	c #190D06",
"Z&	c #4F3522",
"`&	c #936746",
" *	c #A57551",
".*	c #825B3D",
"+*	c #180F0A",
"@*	c #35251C",
"#*	c #432F24",
"$*	c #21150F",
"%*	c #1A110C",
"&*	c #574034",
"**	c #9C745E",
"=*	c #B7886D",
"-*	c #9F745C",
";*	c #6B4D3C",
">*	c #60412C",
",*	c #563A26",
"'*	c #352216",
")*	c #352016",
"!*	c #764E38",
"~*	c #AB7355",
"{*	c #AD7556",
"]*	c #775039",
"^*	c #513424",
"/*	c #82563D",
"(*	c #915F44",
"_*	c #7A4E37",
":*	c #7D543B",
"<*	c #7D533A",
"[*	c #583A27",
"}*	c #2C1B10",
"|*	c #48301F",
"1*	c #8C6244",
"2*	c #8F6545",
"3*	c #593D28",
"4*	c #271A13",
"5*	c #1E130E",
"6*	c #231711",
"7*	c #36251D",
"8*	c #765746",
"9*	c #AD8169",
"0*	c #B0846B",
"a*	c #A37860",
"b*	c #8E6752",
"c*	c #71503F",
"d*	c #5E4031",
"e*	c #593C2E",
"f*	c #5A3E30",
"g*	c #714C3A",
"h*	c #97654C",
"i*	c #A46D51",
"j*	c #855940",
"k*	c #482F20",
"l*	c #342014",
"m*	c #734B35",
"n*	c #A16A4D",
"o*	c #AE7254",
"p*	c #B47859",
"q*	c #BB815E",
"r*	c #B27A59",
"s*	c #8F6145",
"t*	c #65432F",
"u*	c #6A4730",
"v*	c #936648",
"w*	c #865E42",
"x*	c #60432E",
"y*	c #6A4B39",
"z*	c #573E30",
"A*	c #593F32",
"B*	c #604537",
"C*	c #6B4C3C",
"D*	c #8D6551",
"E*	c #A37762",
"F*	c #805E4D",
"G*	c #6D4E3E",
"H*	c #875F4A",
"I*	c #9D6E56",
"J*	c #9F6F57",
"K*	c #9E6E58",
"L*	c #A2725B",
"M*	c #AC775C",
"N*	c #AA7357",
"O*	c #885A44",
"P*	c #4D3123",
"Q*	c #150B06",
"R*	c #3A2418",
"S*	c #7B503B",
"T*	c #A16B51",
"U*	c #A77056",
"V*	c #A67156",
"W*	c #A87457",
"X*	c #A57153",
"Y*	c #A36F50",
"Z*	c #98674D",
"`*	c #946449",
" =	c #92654A",
".=	c #966A4B",
"+=	c #A9795B",
"@=	c #8A654F",
"#=	c #88624E",
"$=	c #996E58",
"%=	c #996D55",
"&=	c #7C5844",
"*=	c #795645",
"==	c #624639",
"-=	c #412C23",
";=	c #6C4938",
">=	c #9B6B53",
",=	c #AB775D",
"'=	c #AA7861",
")=	c #A77760",
"!=	c #AE795E",
"~=	c #A97356",
"{=	c #815741",
"]=	c #472D21",
"^=	c #311F17",
"/=	c #5E3E30",
"(=	c #885B47",
"_=	c #885B46",
":=	c #694635",
"<=	c #583A2C",
"[=	c #583C2C",
"}=	c #62412E",
"|=	c #855A42",
"1=	c #9A6952",
"2=	c #895D46",
"3=	c #6B4935",
"4=	c #896046",
"5=	c #B07C5A",
"6=	c #AA7A5C",
"7=	c #6C4D3B",
"8=	c #573D30",
"9=	c #765341",
"0=	c #90644F",
"a=	c #654638",
"b=	c #422C23",
"c=	c #33231B",
"d=	c #2B1C15",
"e=	c #604132",
"f=	c #895E49",
"g=	c #6E4C3C",
"h=	c #5F4235",
"i=	c #77513D",
"j=	c #99674D",
"k=	c #9B684D",
"l=	c #80553E",
"m=	c #7A523F",
"n=	c #946550",
"o=	c #9A6A55",
"p=	c #744E3E",
"q=	c #37231A",
"r=	c #23140C",
"s=	c #3D271A",
"t=	c #62412D",
"u=	c #926247",
"v=	c #9D6B50",
"w=	c #3F2A1D",
"x=	c #694A34",
"y=	c #A67754",
"z=	c #976C55",
"A=	c #51392C",
"B=	c #271912",
"C=	c #402C22",
"D=	c #67483A",
"E=	c #68493D",
"F=	c #432E26",
"G=	c #312018",
"H=	c #3E291E",
"I=	c #6B4A39",
"J=	c #825B46",
"K=	c #694837",
"L=	c #39261D",
"M=	c #1A100B",
"N=	c #40291D",
"O=	c #7F533C",
"P=	c #AE7657",
"Q=	c #AB7557",
"R=	c #AF775C",
"S=	c #A26F57",
"T=	c #75503D",
"U=	c #442D20",
"V=	c #442C1E",
"W=	c #744D37",
"X=	c #9C6C4D",
"Y=	c #B07A57",
"Z=	c #A16F4F",
"`=	c #62422E",
" -	c #2E1E13",
".-	c #4B3422",
"+-	c #835D3D",
"@-	c #936A53",
"#-	c #634634",
"$-	c #2D1E15",
"%-	c #1A100C",
"&-	c #35251E",
"*-	c #50382F",
"=-	c #624538",
"--	c #6F4E3C",
";-	c #7B5741",
">-	c #986C51",
",-	c #A37358",
"'-	c #865E48",
")-	c #4B3427",
"!-	c #0E0805",
"~-	c #2C1B14",
"{-	c #5F3F30",
"]-	c #7B5240",
"^-	c #79513E",
"/-	c #79523D",
"(-	c #926449",
"_-	c #8B6044",
":-	c #805940",
"<-	c #7F583F",
"[-	c #97694C",
"}-	c #AF7B5B",
"|-	c #B68160",
"1-	c #A87657",
"2-	c #77523B",
"3-	c #483123",
"4-	c #51382A",
"5-	c #4C3423",
"6-	c #8F664A",
"7-	c #92684A",
"8-	c #523929",
"9-	c #1B100B",
"0-	c #1E1310",
"a-	c #443027",
"b-	c #785642",
"c-	c #A8795B",
"d-	c #B58361",
"e-	c #BA8764",
"f-	c #BA8766",
"g-	c #A27559",
"h-	c #694B38",
"i-	c #2A1C13",
"j-	c #342119",
"k-	c #4A3026",
"l-	c #482F25",
"m-	c #35221A",
"n-	c #4C3424",
"o-	c #A77550",
"p-	c #AE7A54",
"q-	c #B17D57",
"r-	c #B5805C",
"s-	c #BB8561",
"t-	c #BA8663",
"u-	c #AC7A5A",
"v-	c #855C41",
"w-	c #674835",
"x-	c #7D5845",
"y-	c #4E3628",
"  . + @ # $ % & * = - ; > , ' ) ! ~ { ] ^ / ( _ : < [ } | 1 2 3 ",
"4 5 6 7 8 9 0 a b c d e f g h i j k l m n o p q r s t u v w x y ",
"z A B C D E F G H I J K L M N O P Q R S T U V W X Y Z `  ...+.@.",
"#.$.%.&.*.=.-.;.>.,.'.).!.~.{.].^./.(._.:.<.[.}.|.1.2.3.4.5.6.7.",
"8.9.0.a.b.c.d.e.f.g.h.i.j.k.l.m.n.o.p.q.r.s.t.u.v.w.x.y.z.A.B.C.",
"9.D.E.F.G.H.I.J.K.L.A M.N.O.P.Q.R.S.T.U.V.W.X.Y.Z.`. +.+++@+#+$+",
"%+&+*+=+-+;+>+,+'+)+!+~+{+]+^+/+(+_+:+<+[+}+|+1+2+3+4+5+6+7+8+9+",
"0+a+b+c+d+e+f+g+h+i+j+k+l+m+n+o+p+q+r+s+t+u+v+w+x+y+z+A+B+C+D+E+",
"F+G+H+I+J+K+L+M+N+O+P+Q+R+S+T+U+V+W+X+Y+Z+`+ @.@+@@@#@$@%@&@*@=@",
"-@;@>@,@'@)@!@~@{@]@^@/@/@(@_@:@<@{.[@}@~.|@1@2@3@w+4@5@6@6@7@8@",
"9@0@a@b@c@d@e@f@g@h@i@j@k@l@m@n@t.o@p@q@r@s@t@u@v@w@x@y@z@A@B@C@",
"D@E@F@G@H@I@J@K@L@M@N@O@N.P@Q@R@y.S@T@U@V@W@X@Y@Z@`@ #.#+#@###$#",
"%#&#*#=#-#;#>#,#'#)#!#~#{#]#^#/#(#M _#:#<#[#o }#|#1#2#3#4#5#6#7#",
"8#9#0#a#b#c#d#e#f#g#h#i#j#k#l#m#n#o#p#q#r#s#t#u#v#w#x#y#z#A#B#C#",
"D#E#F#G#H#I#J#K#L#t+M#N#O#P#Q#R#S#T#U#V#W#X#Y#Z#`# $.$+$@$#$$$%$",
"&$*$=$-$;$>$,$'$'+)$!$~${$]$^$/$($_$:$<$[$}$|$1$2$3$4$5$6$7$8$9$",
"0$a$b$c$d$e$f$g$h$i$j$T@k$l$m$n$o$p$q$r$s$t$u$v$w$x$y$z$A$B$C$D$",
"E$F$G$H$I$J$'#K$L$M$4$N$O$P$Q$`+R$S$T$U$V$W$X$Y$Z$`$ %.%+%@%A#|+",
"#%$%%%&%*%=%-%;%>%,%'%A+)%!%~%{%]%^%/%(%_%:%<%[%}%|%1%2%3%4%5%x@",
"6%7%8%9%0%a%b%c%d%e%f%b.g%h%i%j%k%l%m%n%o%p%q%r%s%t%u%v%4%w%x%y%",
"z%A%B%C%D%E%F%G%H%I%J%p+K%L%M%N%O%P%Q%R%S%T%U%V%W%X%Y%Z%`% &.&+&",
"@&#&$&%&&&*&=&-&;&>&,&'&{#)&!&~&{&]&^&/&(&_&:&<&[&}&|&1&2&3&4&5&",
"6&7&8&9&0&a&b&c&d&e&i f&g&h&i&j&k&l&m&n&o&p&q&r&s&t&u&v&w&x&y&z&",
"A&B&C&D&E&F&G&H&I&}&J&K&L&M&N&(#O&P&Q&R&S&T&U&V&V&W&X&Y&Z&`& *.*",
"+*@*#*$*%*&***=*-*;*K+>*,*'*)*!*~*{*]*^*/*(*_*v$:*<*[*}*|*1*2*3*",
"4*5*6*E&7*8*9*0*a*b*c*d*e*f*g*h*i*j*k*l*m*n*o*p*q*r*s*t*u*v*w*x*",
"y*z*A*B*C*D*E*F*G*H*I*J*K*L*M*N*O*P*Q*R*S*T*U*V*W*X*Y*Z*`* = =.=",
"+=@=#=$=%=&=*===-=;=>=,='=)=!=~={=]=^=/=(=_=:=<=[=}=|=1=2=3=4=5=",
"6=7=8=9=0=a=b=c=d=e=f=n#g=h=i=j=k=l=m=n=o=p=q=r=s=t=u=v=3=w=x=y=",
"z=A=B=C=D=E=F=G=H=I=J=K=L=M=N=O=p%P=Q=R=S=T=U=V=W=X=Y=Z=`= -.-+-",
"@-#-$-%-&-*-=---;->-,-'-)-!-~-{-]-^-/-(-X=_-:-<-[-}-|-1-2-3-4-5-",
"6-7-8-9-0-a-b-c-d-e-f-g-h-i-j-k-l-m-n-L&o-p-q-: r-s-t-u-v-w-x-y-"};
